<?xml version="1.0" encoding="UTF-8"?>
<svg version="1.1" xmlns="http://www.w3.org/2000/svg" width="1024" height="1024">
<path d="M0 0 C1.21236328 0.02707031 1.21236328 0.02707031 2.44921875 0.0546875 C3.06410156 0.07789063 3.67898438 0.10109375 4.3125 0.125 C4.3125 0.785 4.3125 1.445 4.3125 2.125 C5.3025 2.455 6.2925 2.785 7.3125 3.125 C8.77348845 6.0469769 8.42384901 8.62393475 8.41015625 11.8828125 C8.40803383 12.87738968 8.40803383 12.87738968 8.40586853 13.89205933 C8.40026754 16.01141863 8.387715 18.13067259 8.375 20.25 C8.36998512 21.68619639 8.36542219 23.12239444 8.36132812 24.55859375 C8.35029782 28.08076345 8.33303259 31.60287145 8.3125 35.125 C9.87774414 35.26264771 9.87774414 35.26264771 11.47460938 35.40307617 C27.07632075 36.86086364 43.7642289 41.36210747 56.3125 51.125 C54.90851721 55.22610762 52.94162962 58.10589159 50.1875 61.4375 C49.10082031 62.76201172 49.10082031 62.76201172 47.9921875 64.11328125 C47.16074219 65.10908203 47.16074219 65.10908203 46.3125 66.125 C45.4153125 65.66609375 44.518125 65.2071875 43.59375 64.734375 C32.435903 59.18944629 21.63405795 56.17859299 9.3125 54.125 C9.3125 63.695 9.3125 73.265 9.3125 83.125 C9.9725 83.455 10.6325 83.785 11.3125 84.125 C10.3225 84.125 9.3325 84.125 8.3125 84.125 C8.3125 84.785 8.3125 85.445 8.3125 86.125 C9.50875 86.16625 10.705 86.2075 11.9375 86.25 C21.17902387 87.27520867 30.72454295 91.53704295 37.3125 98.125 C32.97916667 102.45833333 28.64583333 106.79166667 24.3125 111.125 C23.59964844 110.83753906 22.88679687 110.55007813 22.15234375 110.25390625 C6.15534739 103.89471512 -8.4749118 102.02984623 -24.94921875 108.3828125 C-39.89499014 115.38684877 -49.54351072 125.90095576 -55.6875 141.125 C-60.71643055 158.15179107 -59.18460606 174.02544532 -51.6875 190.125 C-51.0275 190.785 -50.3675 191.445 -49.6875 192.125 C-49.15125 193.15625 -48.615 194.1875 -48.0625 195.25 C-42.21820868 205.56849236 -31.64237103 212.59536119 -20.6875 216.5625 C-6.51094221 220.45641777 9.05663533 219.17742061 22.23046875 212.6875 C36.69941693 204.197962 45.53456605 192.08436884 50.515625 176.31640625 C51.66025375 171.32592227 51.56741207 166.34493332 51.5 161.25 C51.49935547 160.30125 51.49871094 159.3525 51.49804688 158.375 C51.64662586 153.59132656 51.64662586 153.59132656 50.3125 149.125 C50.12880859 147.54525391 50.12880859 147.54525391 49.94140625 145.93359375 C49.27317078 141.88682613 48.03346039 138.86825867 46.25 135.1875 C45.70214844 134.04410156 45.15429688 132.90070313 44.58984375 131.72265625 C44.16832031 130.86542969 43.74679687 130.00820313 43.3125 129.125 C41.9925 129.125 40.6725 129.125 39.3125 129.125 C38.95671875 129.98931641 38.95671875 129.98931641 38.59375 130.87109375 C37.04130714 133.60206793 35.21035495 135.16722936 32.8125 137.1875 C30.12759872 139.45833371 28.27778001 141.17707998 26.3125 144.125 C27.01931363 146.00983634 27.73475126 147.89202873 28.5 149.75390625 C31.33381699 158.02374718 30.75384775 166.5013507 27.30859375 174.4375 C23.06862123 182.72153872 17.15543006 188.89993139 8.3125 192.125 C-0.28170592 194.23832932 -9.68702637 194.15698473 -17.6875 190.125 C-19.88550718 188.59217921 -21.71240042 186.95902104 -23.6875 185.125 C-24.6775 184.465 -25.6675 183.805 -26.6875 183.125 C-28.00390625 181.13671875 -28.00390625 181.13671875 -29.25 178.8125 C-29.66378906 178.05324219 -30.07757813 177.29398438 -30.50390625 176.51171875 C-34.50506451 168.44337652 -35.00056116 160.006256 -33.03515625 151.203125 C-29.93403233 142.63177821 -24.843255 136.97993966 -16.8125 132.75 C-8.40931462 128.91512987 -2.58797237 127.21211813 6.3125 130.125 C6.6425 129.465 6.9725 128.805 7.3125 128.125 C7.3125 129.115 7.3125 130.105 7.3125 131.125 C11.59670721 129.73416562 13.99286421 127.77808658 17.10546875 124.5546875 C17.98267578 123.65878906 18.85988281 122.76289063 19.76367188 121.83984375 C21.1181543 120.43412109 21.1181543 120.43412109 22.5 119 C24.30147899 117.13885257 26.10724277 115.28183969 27.91796875 113.4296875 C29.11135864 112.1919458 29.11135864 112.1919458 30.32885742 110.92919922 C32.3125 109.125 32.3125 109.125 34.3125 109.125 C34.6425 108.135 34.9725 107.145 35.3125 106.125 C35.9725 106.125 36.6325 106.125 37.3125 106.125 C37.6425 105.135 37.9725 104.145 38.3125 103.125 C41.68009399 99.51899228 45.34137006 96.24443253 49 92.9375 C49.51530273 92.44886475 50.03060547 91.96022949 50.56152344 91.45678711 C53.07023651 89.08552194 55.40693677 87.06359768 58.31640625 85.171875 C61.58472402 82.81013186 63.89785893 80.91219374 65.3125 77.125 C66.47902709 68.74034216 68.194235 54.88847001 64.3125 47.125 C64.9725 47.125 65.6325 47.125 66.3125 47.125 C66.57730164 46.53520859 66.84210327 45.94541718 67.1149292 45.3377533 C68.35308952 43.05000269 69.63741888 41.55251932 71.47363281 39.72094727 C72.11480042 39.07670303 72.75596802 38.4324588 73.41656494 37.76869202 C74.10925476 37.08318771 74.80194458 36.39768341 75.515625 35.69140625 C76.23103455 34.97645493 76.94644409 34.2615036 77.68353271 33.52488708 C79.19762728 32.01381147 80.71414942 30.50516494 82.23291016 28.9987793 C84.54512611 26.70473733 86.84932199 24.40287755 89.15234375 22.09960938 C90.62713479 20.62973724 92.10238068 19.16032129 93.578125 17.69140625 C94.60501434 16.66618614 94.60501434 16.66618614 95.65264893 15.62025452 C99.39638293 11.91305361 103.20886382 8.43044152 107.3125 5.125 C108.54430134 8.82040402 108.43662112 12.22803378 108.41015625 16.07421875 C108.40803383 17.23314384 108.40803383 17.23314384 108.40586853 18.41548157 C108.40027466 20.88119389 108.38772333 23.34681515 108.375 25.8125 C108.36998421 27.48502473 108.36542144 29.15755088 108.36132812 30.83007812 C108.35030724 34.92842046 108.33304684 39.02669479 108.3125 43.125 C109.42286621 43.10928955 110.53323242 43.0935791 111.67724609 43.07739258 C115.78833795 43.02318131 119.8993981 42.98868225 124.01074219 42.96020508 C125.79172067 42.94509827 127.57266184 42.92461165 129.35351562 42.89868164 C131.91024978 42.86238057 134.4664931 42.84529312 137.0234375 42.83203125 C137.82244476 42.81654739 138.62145203 42.80106354 139.44467163 42.78511047 C141.68896484 42.78442383 141.68896484 42.78442383 145.3125 43.125 C145.9725 44.115 146.6325 45.105 147.3125 46.125 C146.8901709 46.4744165 146.4678418 46.82383301 146.03271484 47.18383789 C141.44329562 51.0840712 137.14836759 55.21936458 132.9140625 59.49609375 C132.34894958 60.06671539 131.78383667 60.63733704 131.20159912 61.22525024 C128.84124111 63.61335521 126.48470331 66.00515781 124.13232422 68.40112305 C122.39720636 70.16625453 120.65607159 71.92526685 118.9140625 73.68359375 C118.38076324 74.23035263 117.84746399 74.77711151 117.29800415 75.34043884 C116.00697777 76.64028518 114.66405967 77.88821543 113.3125 79.125 C112.6525 79.125 111.9925 79.125 111.3125 79.125 C111.3125 79.785 111.3125 80.445 111.3125 81.125 C109.125 83.5 109.125 83.5 106.3125 86.125 C105.6421875 86.83269531 104.971875 87.54039062 104.28125 88.26953125 C99.92687995 90.99101253 96.02341778 90.50159534 91 90.4375 C89.09570439 90.47950297 87.19175381 90.54408937 85.2890625 90.6328125 C84.44166504 90.66262207 83.59426758 90.69243164 82.72119141 90.72314453 C77.75014469 91.55249208 75.34146252 94.35829017 72.3125 98.125 C70.49708425 99.98472023 68.64446207 101.80277907 66.78881836 103.62231445 C63.93256103 106.42635115 61.12490279 109.27704718 58.3125 112.125 C59.61585717 115.55115178 61.13738778 118.80887215 62.77514648 122.08666992 C67.36285882 131.39345269 71.3125 141.62243889 71.3125 152.125 C81.2125 152.125 91.1125 152.125 101.3125 152.125 C98.79776146 134.38212249 94.25683215 119.68537166 85.3125 104.125 C84.6525 102.805 83.9925 101.485 83.3125 100.125 C90.9025 100.125 98.4925 100.125 106.3125 100.125 C116.3125 119.21590909 116.3125 119.21590909 116.3125 127.125 C117.3025 127.455 118.2925 127.785 119.3125 128.125 C118.6525 128.125 117.9925 128.125 117.3125 128.125 C117.61994141 129.37603516 117.61994141 129.37603516 117.93359375 130.65234375 C119.49261707 137.16443639 120.65760793 143.46693066 121.3125 150.125 C121.6425 150.785 121.9725 151.445 122.3125 152.125 C123.04364014 152.10405273 123.77478027 152.08310547 124.52807617 152.06152344 C127.85191001 151.97819686 131.17552384 151.92628668 134.5 151.875 C135.65048828 151.84148437 136.80097656 151.80796875 137.98632812 151.7734375 C139.09814453 151.76054687 140.20996094 151.74765625 141.35546875 151.734375 C142.37664795 151.71342773 143.39782715 151.69248047 144.44995117 151.67089844 C148.06814293 152.24487171 149.69009355 153.62219996 152.3125 156.125 C153.8125 158.4375 153.8125 158.4375 154.3125 161.125 C153.1921668 165.18620785 152.35297074 167.44153777 148.78515625 169.78515625 C144.3765008 171.48613355 140.43753978 171.75985928 135.75 171.9375 C134.91275391 171.98841797 134.07550781 172.03933594 133.21289062 172.09179688 C128.75145872 172.30020897 125.36908782 172.27358128 121.3125 170.125 C121.28671875 170.93839844 121.2609375 171.75179687 121.234375 172.58984375 C119.9031614 199.48640946 109.06415778 223.2729938 92.0078125 243.9140625 C90.10966986 245.92517113 90.10966986 245.92517113 90.3125 248.125 C89.714375 248.393125 89.11625 248.66125 88.5 248.9375 C86.26922092 250.0143979 86.26922092 250.0143979 84.6875 251.75 C84.23375 252.20375 83.78 252.6575 83.3125 253.125 C82.6525 253.125 81.9925 253.125 81.3125 253.125 C80.9825 254.115 80.6525 255.105 80.3125 256.125 C77.89400802 258.42185185 75.04586225 260.22318464 72.3125 262.125 C71.78285645 262.50108398 71.25321289 262.87716797 70.70751953 263.26464844 C51.46219998 276.88207972 31.83078305 284.15287864 8.3125 286.125 C8.33344727 286.97731201 8.35439453 287.82962402 8.37597656 288.70776367 C8.44435244 291.88529433 8.49439738 295.06244871 8.53222656 298.24047852 C8.5522799 299.61300023 8.57953028 300.98543717 8.61425781 302.35766602 C8.66304552 304.33572044 8.68338876 306.31441119 8.703125 308.29296875 C8.72407227 309.48172607 8.74501953 310.6704834 8.76660156 311.89526367 C8.223115 315.76073881 7.02097978 317.37150481 4.3125 320.125 C1.21201072 321.67524464 -1.26644218 321.41492015 -4.6875 321.125 C-8.07689556 318.98820715 -9.41332557 317.9475233 -10.6875 314.125 C-10.77041953 312.1329697 -10.79488177 310.13826287 -10.78515625 308.14453125 C-10.78193359 306.98115234 -10.77871094 305.81777344 -10.77539062 304.61914062 C-10.76701172 303.40419922 -10.75863281 302.18925781 -10.75 300.9375 C-10.74548828 299.71095703 -10.74097656 298.48441406 -10.73632812 297.22070312 C-10.72453065 294.18875332 -10.70806921 291.15690094 -10.6875 288.125 C-13.08672139 287.32525954 -15.18107687 286.81733514 -17.65234375 286.3984375 C-42.0586826 282.05101171 -63.93856242 273.67415248 -82.6875 257.125 C-83.44289063 256.58746094 -84.19828125 256.04992187 -84.9765625 255.49609375 C-85.82347656 254.81740234 -85.82347656 254.81740234 -86.6875 254.125 C-86.6875 253.465 -86.6875 252.805 -86.6875 252.125 C-87.25210938 251.89167969 -87.81671875 251.65835938 -88.3984375 251.41796875 C-106.37934822 241.26151577 -117.65895639 213.20543838 -123.06933594 194.50537109 C-125.01706262 187.00523874 -126.6875 178.88621607 -126.6875 171.125 C-127.64789185 171.14856567 -127.64789185 171.14856567 -128.62768555 171.17260742 C-131.54336631 171.23517115 -134.45890555 171.27405808 -137.375 171.3125 C-138.38240234 171.33763672 -139.38980469 171.36277344 -140.42773438 171.38867188 C-149.8454348 171.48191643 -149.8454348 171.48191643 -153.6875 168.125 C-156.01286063 164.63695905 -156.02207898 163.22359246 -155.6875 159.125 C-154.6875 156.75 -154.6875 156.75 -153.6875 155.125 C-153.0275 155.125 -152.3675 155.125 -151.6875 155.125 C-151.6875 154.465 -151.6875 153.805 -151.6875 153.125 C-149.75050627 152.95254905 -147.81285992 152.78742831 -145.875 152.625 C-144.79605469 152.5321875 -143.71710938 152.439375 -142.60546875 152.34375 C-137.62878111 152.06588907 -132.67039762 152.0843279 -127.6875 152.125 C-127.59251221 151.5172876 -127.49752441 150.9095752 -127.3996582 150.28344727 C-123.99423538 128.82625194 -120.08163144 105.28723363 -105.6875 88.125 C-105.089375 87.196875 -104.49125 86.26875 -103.875 85.3125 C-100.46954751 80.35026923 -96.76824964 75.55237702 -92.6875 71.125 C-92.0275 71.125 -91.3675 71.125 -90.6875 71.125 C-90.49800781 70.58359375 -90.30851562 70.0421875 -90.11328125 69.484375 C-88.00822466 66.00093888 -85.05557789 63.86375281 -81.875 61.375 C-81.20065918 60.84495361 -80.52631836 60.31490723 -79.83154297 59.76879883 C-59.2460679 43.83017424 -36.61507339 35.82291584 -10.6875 35.125 C-10.71106567 33.89197144 -10.71106567 33.89197144 -10.73510742 32.6340332 C-10.79755073 28.90192572 -10.83652136 25.16992828 -10.875 21.4375 C-10.90013672 20.14392578 -10.92527344 18.85035156 -10.95117188 17.51757812 C-10.96567383 15.64682617 -10.96567383 15.64682617 -10.98046875 13.73828125 C-11.00403442 12.01798706 -11.00403442 12.01798706 -11.02807617 10.26293945 C-10.64626461 6.74507281 -9.80640677 4.93254372 -7.6875 2.125 C-4.48369983 -0.01086678 -3.66810033 -0.10632175 0 0 Z M-70.6875 76.125 C-71.326875 76.62 -71.96625 77.115 -72.625 77.625 C-92.50108697 93.6541024 -104.22924932 119.84175256 -106.98193359 144.79394531 C-107.228105 147.23675619 -107.46407986 149.68001324 -107.6875 152.125 C-103.57600113 152.29228213 -99.46430194 152.45287468 -95.35229492 152.60717773 C-93.95248319 152.66066026 -92.55274096 152.71599434 -91.15307617 152.77319336 C-89.1452104 152.85492949 -87.13705813 152.92953025 -85.12890625 153.00390625 C-83.91920166 153.0510376 -82.70949707 153.09816895 -81.46313477 153.14672852 C-78.77892668 153.45027662 -78.77892668 153.45027662 -77.6875 152.125 C-77.31967532 149.96061014 -76.96892409 147.7933161 -76.625 145.625 C-74.42249578 133.54646688 -69.04926236 121.9438852 -60.9375 112.69140625 C-59.47958541 111.19846172 -59.47958541 111.19846172 -59.6875 109.125 C-58.6975 108.795 -57.7075 108.465 -56.6875 108.125 C-56.6875 107.465 -56.6875 106.805 -56.6875 106.125 C-56.0275 106.125 -55.3675 106.125 -54.6875 106.125 C-54.6875 105.465 -54.6875 104.805 -54.6875 104.125 C-54.11902344 103.86203125 -53.55054688 103.5990625 -52.96484375 103.328125 C-50.52513678 102.03922321 -48.45804995 100.52824482 -46.25 98.875 C-35.392037 91.26650038 -24.59510402 88.01391766 -11.6875 86.125 C-11.1340236 84.04946352 -10.6875 82.28134036 -10.6875 80.125 C-10.6875 71.125 -10.6875 62.125 -10.6875 53.125 C-33.10396058 53.125 -53.69884787 61.79082476 -70.6875 76.125 Z M-12.5625 153.1875 C-14.59322941 158.48996012 -14.65634379 163.9104999 -12.375 169.125 C-9.97744105 171.96655135 -8.03947405 173.03700649 -4.4375 173.9375 C1.10044669 174.21439733 4.55407321 172.61289959 8.75 169.0625 C10.99985815 164.83276667 10.97016529 160.82807153 10.3125 156.125 C8.86530781 152.30027777 6.81927123 150.7952135 3.17578125 148.88671875 C-2.80508144 146.44171199 -8.35580771 148.56013848 -12.5625 153.1875 Z M-107.6875 170.125 C-104.69255676 194.73093652 -96.88142192 217.55260957 -78.6875 235.125 C-77.85089844 235.97320313 -77.01429688 236.82140625 -76.15234375 237.6953125 C-75.31832031 238.53835938 -74.48429687 239.38140625 -73.625 240.25 C-72.78839844 241.09820313 -71.95179688 241.94640625 -71.08984375 242.8203125 C-67.05161927 246.98615834 -67.05161927 246.98615834 -61.6875 248.125 C-61.3575 249.115 -61.0275 250.105 -60.6875 251.125 C-45.83157803 261.60233444 -28.60594008 266.63179666 -10.6875 268.125 C-10.6875 258.555 -10.6875 248.985 -10.6875 239.125 C-11.3475 239.125 -12.0075 239.125 -12.6875 239.125 C-12.6875 238.135 -12.6875 237.145 -12.6875 236.125 C-13.30496094 236.09921875 -13.92242187 236.0734375 -14.55859375 236.046875 C-21.08553236 235.60975887 -25.89642788 234.07215826 -31.6875 231.125 C-33.11255859 230.45597656 -33.11255859 230.45597656 -34.56640625 229.7734375 C-54.04717599 220.46844659 -66.52132494 207.09685876 -73.86254883 186.83984375 C-75.44094471 182.23661386 -76.59015097 177.66442939 -77.265625 172.84765625 C-77.40484375 172.27917969 -77.5440625 171.71070313 -77.6875 171.125 C-80.50574192 169.71587904 -82.86001282 170.01316447 -86.0078125 170.02734375 C-87.89306641 170.03217773 -87.89306641 170.03217773 -89.81640625 170.03710938 C-91.13511719 170.04548828 -92.45382813 170.05386719 -93.8125 170.0625 C-95.15234211 170.06751511 -96.492186 170.07207799 -97.83203125 170.07617188 C-101.11723206 170.08798914 -104.40234397 170.10446383 -107.6875 170.125 Z M71.3125 171.125 C69.87345426 176.15269321 69.87345426 176.15269321 68.48828125 181.1953125 C66.39840225 188.59026895 63.6009969 194.78883197 59.80078125 201.4453125 C58.21815315 204.10109576 58.21815315 204.10109576 57.3125 207.125 C55.69419517 208.83866421 54.0199447 210.50013442 52.3125 212.125 C51.51972656 212.91519531 50.72695313 213.70539063 49.91015625 214.51953125 C39.69530012 224.26220605 28.99390224 230.0968649 15.4921875 233.921875 C11.99960363 235.24339322 10.59105303 236.19743414 8.3125 239.125 C7.76222236 242.3132545 7.76222236 242.3132545 7.921875 245.859375 C7.93476563 247.15488281 7.94765625 248.45039062 7.9609375 249.78515625 C7.99435634 251.14844824 8.02821609 252.51172949 8.0625 253.875 C8.08257293 255.25388064 8.10082233 256.63278912 8.1171875 258.01171875 C8.16434552 261.38351744 8.23015462 264.75390687 8.3125 268.125 C37.53622153 264.32294068 63.28681945 250.60449183 81.80761719 227.23876953 C94.44387513 210.21015888 100.27332957 192.02649689 102.3125 171.125 C92.0825 171.125 81.8525 171.125 71.3125 171.125 Z " fill="#0093F8" transform="translate(263.6875,335.875)"/>
<path d="M0 0 C1.92613371 1.59260407 3.39778371 3.06629069 5 5 C5 5.66 5 6.32 5 7 C5.66 7 6.32 7 7 7 C8.76171875 9.30078125 8.76171875 9.30078125 10.6875 12.3125 C11.33074219 13.29863281 11.97398437 14.28476562 12.63671875 15.30078125 C13.08660156 16.19152344 13.53648437 17.08226562 14 18 C12.69887007 21.90338978 11.32851319 22.21180086 7.7578125 24.13671875 C6.69175781 24.71357422 5.62570312 25.29042969 4.52734375 25.88476562 C3.40457031 26.47966797 2.28179688 27.07457031 1.125 27.6875 C0.00996094 28.29400391 -1.10507812 28.90050781 -2.25390625 29.52539062 C-10.59912823 34 -10.59912823 34 -14 34 C-14.99 31.03 -15.98 28.06 -17 25 C-17.66 25 -18.32 25 -19 25 C-19.5775 24.0925 -20.155 23.185 -20.75 22.25 C-24.36632585 17.02641822 -28.89473831 14.49751702 -35 13 C-45.39776222 11.27525271 -55.00126023 12.18915459 -64 18 C-73.23107467 25.94301774 -77.88741903 36.61028651 -78.90625 48.734375 C-78.95265625 49.85585938 -78.95265625 49.85585938 -79 51 C-79.0515625 52.09828125 -79.103125 53.1965625 -79.15625 54.328125 C-79.4415345 65.88214717 -78.51099994 78.08806539 -72 88 C-71.42185547 88.90298828 -71.42185547 88.90298828 -70.83203125 89.82421875 C-66.23697539 96.03630307 -58.92874202 99.69717966 -51.546875 101.6484375 C-40.82077463 103.12903418 -30.06444568 102.68225231 -20.9375 96.4375 C-17.99771171 94.33103894 -17.99771171 94.33103894 -17 92 C-16.79201618 89.37131559 -16.62580793 86.75764738 -16.5 84.125 C-16.08048832 75.43955449 -16.08048832 75.43955449 -15 72 C-16.485 72.495 -16.485 72.495 -18 73 C-19.61513051 73.09278335 -21.23377055 73.13068503 -22.8515625 73.1328125 C-24.25148438 73.13474609 -24.25148438 73.13474609 -25.6796875 73.13671875 C-27.13761719 73.13091797 -27.13761719 73.13091797 -28.625 73.125 C-29.6046875 73.12886719 -30.584375 73.13273438 -31.59375 73.13671875 C-32.52445313 73.13542969 -33.45515625 73.13414062 -34.4140625 73.1328125 C-35.2695166 73.13168457 -36.1249707 73.13055664 -37.00634766 73.12939453 C-39 73 -39 73 -40 72 C-40.08713831 70.29227642 -40.10700007 68.58101351 -40.09765625 66.87109375 C-40.09282227 65.31938477 -40.09282227 65.31938477 -40.08789062 63.73632812 C-40.07532227 62.1034082 -40.07532227 62.1034082 -40.0625 60.4375 C-40.05798828 59.34501953 -40.05347656 58.25253906 -40.04882812 57.12695312 C-40.03699826 54.41791505 -40.02051543 51.70898401 -40 49 C-39.17798096 49.00523682 -38.35596191 49.01047363 -37.5090332 49.01586914 C-33.77686327 49.03668393 -30.04470558 49.04967455 -26.3125 49.0625 C-25.01892578 49.07087891 -23.72535156 49.07925781 -22.39257812 49.08789062 C-21.14541016 49.09111328 -19.89824219 49.09433594 -18.61328125 49.09765625 C-16.89298706 49.10551147 -16.89298706 49.10551147 -15.13793945 49.11352539 C-12.29462309 49.01065897 -9.77206447 48.59175454 -7 48 C-5.125 48.375 -5.125 48.375 -3 49 C-0.66905466 49.3496418 1.66404762 49.68554487 4 50 C4 49.34 4 48.68 4 48 C6.31 48.66 8.62 49.32 11 50 C11.495 49.01 11.495 49.01 12 48 C13.63483184 49.63483184 13.16881713 51.50336033 13.20874023 53.76000977 C13.22803085 54.7751918 13.24732147 55.79037384 13.26719666 56.83631897 C13.3248441 61.50843972 13.37426746 66.18040135 13.4050293 70.8527832 C13.42656799 73.3135383 13.460621 75.77421765 13.50756836 78.23461914 C13.5746914 81.78306301 13.60205587 85.32991628 13.62109375 88.87890625 C13.64892441 89.97191544 13.67675507 91.06492462 13.70542908 92.1910553 C13.6856048 99.60235051 12.15560549 103.67135355 7 109 C6.175 109.886875 5.35 110.77375 4.5 111.6875 C3.2625 112.8321875 3.2625 112.8321875 2 114 C0.7315625 115.2065625 0.7315625 115.2065625 -0.5625 116.4375 C-15.30336461 128.30482898 -34.76488176 130.65418826 -53 129 C-70.15711406 126.66287562 -84.85658938 118.474191 -96.25 105.4375 C-109.02399825 88.49293558 -112.12027845 66.53327729 -109.75683594 45.87451172 C-109.13937792 41.82435394 -108.16000056 37.92500188 -107 34 C-106.7215625 33.03964844 -106.443125 32.07929688 -106.15625 31.08984375 C-100.69186578 14.34339038 -88.49384218 1.16064985 -73.3828125 -7.5 C-49.46777608 -19.42203596 -21.2123995 -15.21017714 0 0 Z " fill="#002A49" transform="translate(892,440)"/>
<path d="M0 0 C1.175625 0.7734375 1.175625 0.7734375 2.375 1.5625 C4.23273601 3.20588186 4.95362929 4.77532488 6 7 C6.65742187 6.23816406 6.65742187 6.23816406 7.328125 5.4609375 C14.2458732 -2.04735018 22.8983586 -7.39623816 33.25390625 -8.16796875 C50.41688083 -8.31317158 50.41688083 -8.31317158 55.16796875 -4.05859375 C55.77253906 -3.37925781 56.37710938 -2.69992187 57 -2 C57.969375 -1.278125 58.93875 -0.55625 59.9375 0.1875 C66.39986705 5.54016766 69.3179549 14.01101011 71 22 C71.4787603 27.5391021 71.53770976 33.0640224 71.58203125 38.62109375 C71.60399939 40.21388574 71.62694001 41.80666459 71.65080261 43.39942932 C71.69739287 46.71668899 71.73415591 50.03386175 71.76342773 53.35131836 C71.80148998 57.60416057 71.86157759 61.85635051 71.92854786 66.10882473 C71.97828501 69.38835534 72.01794977 72.66794599 72.05438805 75.947649 C72.07275801 77.5165869 72.0939306 79.08549458 72.11795998 80.654356 C72.14962945 82.83918873 72.1680875 85.02373664 72.18286133 87.20874023 C72.19601883 88.45098862 72.20917633 89.693237 72.22273254 90.97312927 C72 94 72 94 70 97 C67.47802734 97.34057617 67.47802734 97.34057617 64.3359375 97.29296875 C63.21445312 97.28330078 62.09296875 97.27363281 60.9375 97.26367188 C59.1740625 97.2259668 59.1740625 97.2259668 57.375 97.1875 C55.59996094 97.16719727 55.59996094 97.16719727 53.7890625 97.14648438 C50.85892461 97.11103916 47.92968541 97.06162769 45 97 C43.23776568 93.20970224 42.77933372 90.35549015 42.89648438 86.19091797 C42.93642517 84.47290482 42.93642517 84.47290482 42.97717285 82.72018433 C43.03487854 80.8748259 43.03487854 80.8748259 43.09375 78.9921875 C43.13925021 77.04129686 43.18473734 75.09040582 43.22948456 73.13949776 C43.32709874 69.03070393 43.44318695 64.92239193 43.55718994 60.81402588 C43.65026665 57.43946824 43.73888208 54.06493428 43.81604004 50.68997192 C43.87468388 48.16421981 43.94307581 45.63866864 44.02282715 43.11349487 C44.41361581 28.55761743 44.41361581 28.55761743 38 16 C33.58271972 13.14175982 28.08412553 13.47898218 23 14 C18.20074132 15.81305328 15.10592926 19.38093369 13 24 C9.45615636 38.31324175 10.77942689 53.83915829 10.875 68.4375 C10.88619982 71.11523101 10.89417143 73.79295975 10.90234375 76.47070312 C10.92420708 82.9805493 10.95753291 89.49025731 11 96 C7.25882822 98.0637825 5.02601958 98.08097365 0.75 97.625 C-3.06492949 97.25636636 -6.79199108 96.92875448 -10.625 97 C-14 97 -14 97 -17 96 C-16.99333817 94.87152901 -16.99333817 94.87152901 -16.98654175 93.72026062 C-16.94625644 86.58636501 -16.91591052 79.45252554 -16.89637566 72.31854534 C-16.88599458 68.65201095 -16.87194087 64.98557155 -16.84912109 61.3190918 C-16.82718797 57.77236324 -16.81538885 54.22572531 -16.81024551 50.6789341 C-16.80482064 48.68563978 -16.78924148 46.69238127 -16.77340698 44.69914246 C-16.66513482 29.42187554 -16.66513482 29.42187554 -23 16 C-25.9223303 14.59183048 -28.84013644 13.70894375 -32 13 C-32.33 13.66 -32.66 14.32 -33 15 C-33 14.34 -33 13.68 -33 13 C-39.0114325 14.14009927 -42.6388046 15.4359583 -47 20 C-50.27899756 26.21878848 -51.13327456 32.0775046 -51.09765625 39.03369141 C-51.09270142 40.78548203 -51.09270142 40.78548203 -51.08764648 42.57266235 C-51.07934814 43.8196994 -51.0710498 45.06673645 -51.0625 46.3515625 C-51.05671502 48.32477982 -51.05093557 50.29799717 -51.04548645 52.27121544 C-51.03458349 55.72249681 -51.01708493 59.1737446 -51 62.625 C-50.97960801 66.75197855 -50.96038383 70.87893651 -50.94897461 75.00595093 C-50.94143927 77.57239549 -50.92937621 80.13883154 -50.91235352 82.70523071 C-50.90739868 84.44756485 -50.90739868 84.44756485 -50.90234375 86.22509766 C-50.89448853 87.75682114 -50.89448853 87.75682114 -50.88647461 89.31948853 C-50.98792919 91.71498947 -51.31103328 93.71356195 -52 96 C-55.40653507 96.76673688 -58.55744637 97.12816701 -62.046875 97.1328125 C-63.43712891 97.13474609 -63.43712891 97.13474609 -64.85546875 97.13671875 C-65.81066406 97.13285156 -66.76585937 97.12898437 -67.75 97.125 C-68.72066406 97.12886719 -69.69132813 97.13273438 -70.69140625 97.13671875 C-72.07392578 97.13478516 -72.07392578 97.13478516 -73.484375 97.1328125 C-74.32709961 97.13168457 -75.16982422 97.13055664 -76.03808594 97.12939453 C-78 97 -78 97 -79 96 C-79.0891514 93.74167758 -79.10684353 91.48052175 -79.09765625 89.22045898 C-79.09619598 88.51139908 -79.09473572 87.80233917 -79.0932312 87.0717926 C-79.08941524 85.52595263 -79.08328831 83.98011708 -79.07516479 82.43429375 C-79.06243223 79.98304753 -79.05589244 77.53185529 -79.05102539 75.08058167 C-79.0376297 68.98523191 -79.01355427 62.88993262 -78.98962402 56.7946167 C-78.96983021 51.65692999 -78.9542079 46.51926303 -78.94406128 41.38154793 C-78.93761204 38.97539374 -78.92509763 36.56932059 -78.91235352 34.16319275 C-78.90871664 32.67056345 -78.90536546 31.17793341 -78.90234375 29.68530273 C-78.89710693 28.39148178 -78.89187012 27.09766083 -78.88647461 25.76463318 C-78.96959502 23.00826432 -79.16419059 20.46600838 -79.53344727 17.75013733 C-80.01519379 13.87787278 -79.6499094 10.82724425 -79 7 C-78.85584832 3.82866306 -78.9856544 2.04303681 -80 -1 C-79.34 -2.65 -78.68 -4.3 -78 -6 C-69.42 -6 -60.84 -6 -52 -6 C-51.67 -2.7 -51.34 0.6 -51 4 C-49.865625 2.9275 -48.73125 1.855 -47.5625 0.75 C-33.65999162 -11.4054675 -14.58132906 -10.51372426 0 0 Z " fill="#0096FC" transform="translate(697,470)"/>
<path d="M0 0 C1.21042969 -0.03738281 2.42085938 -0.07476562 3.66796875 -0.11328125 C4.82683594 -0.12488281 5.98570312 -0.13648438 7.1796875 -0.1484375 C8.24687012 -0.16825684 9.31405273 -0.18807617 10.41357422 -0.20849609 C13.125 0.375 13.125 0.375 14.83349609 2.49804688 C16.23287837 5.61530977 17.52899678 8.73162641 18.734375 11.9296875 C19.09917465 12.89078178 19.09917465 12.89078178 19.47134399 13.87129211 C19.99901408 15.26311921 20.52449892 16.65577632 21.04803467 18.04916382 C21.89444525 20.30175044 22.74649577 22.55213123 23.60009766 24.80200195 C24.50785877 27.19470281 25.41529744 29.58751991 26.32107544 31.98097229 C29.67985595 40.8546537 33.08907134 49.70876381 36.5 58.5625 C37.75934649 61.83324408 39.01836003 65.10411627 40.27734375 68.375 C40.59159805 69.19128372 40.90585236 70.00756744 41.22962952 70.84858704 C43.19837895 75.9635451 45.16353852 81.07986761 47.12597656 86.19725037 C48.44792579 89.6443786 49.77081798 93.09114459 51.09381104 96.53787231 C51.73545329 98.21014056 52.37669398 99.88256295 53.01751709 101.55514526 C55.91406809 109.11394786 58.81151885 116.66858634 61.87890625 124.16015625 C62.26763916 125.10995361 62.65637207 126.05975098 63.05688477 127.03833008 C63.73961967 128.69171896 64.43071613 130.34169579 65.13256836 131.98706055 C67.23310299 137.05069103 67.23310299 137.05069103 66.125 140.375 C62.02084811 140.40398097 57.91672247 140.4217922 53.8125 140.4375 C52.64525391 140.44587891 51.47800781 140.45425781 50.27539062 140.46289062 C48.59799805 140.46772461 48.59799805 140.46772461 46.88671875 140.47265625 C45.85506592 140.47789307 44.82341309 140.48312988 43.76049805 140.48852539 C41.125 140.375 41.125 140.375 38.125 139.375 C37.12939453 137.5559082 37.12939453 137.5559082 36.2578125 135.17578125 C35.93167969 134.30219971 35.60554687 133.42861816 35.26953125 132.52856445 C34.93308594 131.59101318 34.59664062 130.65346191 34.25 129.6875 C33.90066406 128.74028076 33.55132813 127.79306152 33.19140625 126.81713867 C32.15833972 124.00694039 31.14091399 121.19143557 30.125 118.375 C29.5816477 116.89549568 29.03747497 115.41629219 28.4921875 113.9375 C25.125 104.70178571 25.125 104.70178571 25.125 102.375 C24.135 102.87 24.135 102.87 23.125 103.375 C21.61335608 103.46477728 20.09779821 103.49257433 18.58349609 103.48852539 C17.64267181 103.48844986 16.70184753 103.48837433 15.73251343 103.48829651 C14.71476837 103.48313522 13.69702332 103.47797394 12.6484375 103.47265625 C11.60805328 103.4712413 10.56766907 103.46982635 9.49575806 103.46836853 C6.16380979 103.46275866 2.83192805 103.45020447 -0.5 103.4375 C-2.75520736 103.43248627 -5.01041578 103.42792314 -7.265625 103.42382812 C-12.80210614 103.41278603 -18.33854832 103.39603827 -23.875 103.375 C-24.06970383 103.93274612 -24.26440765 104.49049225 -24.4650116 105.06513977 C-25.36552138 107.64385341 -26.26674178 110.22231818 -27.16796875 112.80078125 C-27.47408081 113.6777063 -27.78019287 114.55463135 -28.09558105 115.45812988 C-30.09328968 121.17170841 -32.12213311 126.87303118 -34.1875 132.5625 C-34.42795044 133.23543091 -34.66840088 133.90836182 -34.9161377 134.60168457 C-36.64457877 139.25978939 -36.64457877 139.25978939 -38.875 140.375 C-40.27696476 140.44676682 -41.68230057 140.45892503 -43.0859375 140.4375 C-44.33503906 140.42589844 -44.33503906 140.42589844 -45.609375 140.4140625 C-47.36198088 140.38813638 -49.11458507 140.36209575 -50.8671875 140.3359375 C-51.7025 140.32820312 -52.5378125 140.32046875 -53.3984375 140.3125 C-54.5419165 140.29509766 -54.5419165 140.29509766 -55.70849609 140.27734375 C-57.88354657 140.2839736 -57.88354657 140.2839736 -59.90478516 141.00390625 C-62.49764018 141.49227547 -63.61071855 140.6093999 -65.875 139.375 C-63.81697329 133.04020629 -61.57810491 126.79320646 -59.21484375 120.56640625 C-58.86869019 119.65032089 -58.52253662 118.73423553 -58.16589355 117.79039001 C-57.04992384 114.8387312 -55.93131755 111.88808039 -54.8125 108.9375 C-54.03972556 106.89585959 -53.26702083 104.85419278 -52.49438477 102.8125 C-47.34067247 89.20229693 -42.14232467 75.60997805 -36.89990234 62.03369141 C-35.29878172 57.88023653 -33.70997959 53.72213736 -32.125 49.5625 C-31.82255371 48.7694043 -31.52010742 47.97630859 -31.20849609 47.15917969 C-29.21275976 41.91626178 -27.23122288 36.66808882 -25.25595093 31.41743469 C-23.97372757 28.00970459 -22.68955668 24.60270947 -21.40539551 21.19570923 C-20.76122635 19.48481007 -20.11807485 17.7735274 -19.47595215 16.06185913 C-18.57101464 13.64969923 -17.66278489 11.23880216 -16.75390625 8.828125 C-16.47823318 8.09062515 -16.20256012 7.35312531 -15.91853333 6.59327698 C-12.74254876 -1.80759494 -8.44132707 0.09825883 0 0 Z M-0.875 33.375 C-1.26816406 34.57382812 -1.66132813 35.77265625 -2.06640625 37.0078125 C-4.21649997 43.4568326 -6.51928084 49.85079409 -8.8125 56.25 C-9.24240234 57.45269531 -9.67230469 58.65539062 -10.11523438 59.89453125 C-10.53998047 61.08175781 -10.96472656 62.26898438 -11.40234375 63.4921875 C-11.81468262 64.64944336 -12.22702148 65.80669922 -12.65185547 66.99902344 C-13.45223229 69.20812735 -14.27343117 71.40982517 -15.11767578 73.60253906 C-15.49263184 74.5819043 -15.86758789 75.56126953 -16.25390625 76.5703125 C-16.59107666 77.42898926 -16.92824707 78.28766602 -17.27563477 79.17236328 C-18.13369441 81.52262346 -18.13369441 81.52262346 -16.875 84.375 C-15.555 84.375 -14.235 84.375 -12.875 84.375 C-3.20833333 84.375 6.45833333 84.375 16.125 84.375 C16.125 83.715 16.125 83.055 16.125 82.375 C16.785 82.375 17.445 82.375 18.125 82.375 C15.90118742 72.9502705 12.49907568 64.00604498 9.09521484 54.96240234 C7.4387946 50.54500382 5.81494848 46.1156348 4.1875 41.6875 C3.5951964 40.07937392 3.00276217 38.47129594 2.41015625 36.86328125 C1.98605469 35.71214844 1.56195313 34.56101562 1.125 33.375 C0.465 33.375 -0.195 33.375 -0.875 33.375 Z " fill="#0092F7" transform="translate(497.875,426.625)"/>
<path d="M0 0 C8.91 0 17.82 0 27 0 C27.89227067 12.15217073 28.13333539 24.19382377 28.09765625 36.375 C28.09578576 38.28027306 28.09436485 40.1855466 28.09336853 42.09082031 C28.08959295 47.04888288 28.07980646 52.00691506 28.06866455 56.96496582 C28.05834237 62.0469522 28.05384801 67.12894361 28.04882812 72.2109375 C28.03817854 82.14063818 28.02116354 92.07031654 28 102 C24.37101447 103.54484212 22.17521335 104.20223726 18.25 103.625 C14.7933837 103.17998652 11.48560302 102.9437806 8 103 C4 103 4 103 2 102 C1.505 102.99 1.505 102.99 1 104 C-0.12362521 100.62912438 -0.1134966 98.10938661 -0.09765625 94.55664062 C-0.09619598 93.9075322 -0.09473572 93.25842377 -0.0932312 92.58964539 C-0.0894291 91.18188211 -0.08331662 89.7741236 -0.07516479 88.36637878 C-0.06240102 86.1389775 -0.05588558 83.91163576 -0.05102539 81.6842041 C-0.03765372 76.15269909 -0.01343697 70.62125081 0.01037598 65.08978271 C0.03009026 60.41452862 0.04573739 55.73929544 0.05593872 51.06401062 C0.06242631 48.86868535 0.07493418 46.6734462 0.08764648 44.47814941 C0.09127888 43.13322017 0.09463063 41.78829012 0.09765625 40.44335938 C0.10551147 38.68155334 0.10551147 38.68155334 0.11352539 36.88415527 C0.13139663 33.92973966 0.13139663 33.92973966 -1 31 C-0.9382344 28.66413732 -0.80458627 26.32976785 -0.625 24 C-0.53476562 22.7625 -0.44453125 21.525 -0.3515625 20.25 C0 17 0 17 1 14 C0.34 14 -0.32 14 -1 14 C-0.9278125 13.07316406 -0.855625 12.14632813 -0.78125 11.19140625 C-0.6884375 9.99386719 -0.595625 8.79632813 -0.5 7.5625 C-0.4071875 6.36753906 -0.314375 5.17257812 -0.21875 3.94140625 C-0.06058137 1.97251499 -0.06058137 1.97251499 0 0 Z " fill="#0099FE" transform="translate(573,464)"/>
<path d="M0 0 C3.40368832 3.16056773 4.94886888 5.83037398 5.625 10.4375 C5.28552543 15.82059678 4.35560264 20.3938398 0.625 24.4375 C-4.98365488 27.50179468 -10.27013185 28.03877689 -16.375 26.4375 C-20.88214471 23.46108368 -23.68644423 20.60249412 -25.375 15.4375 C-25.76657805 10.33766208 -24.88039358 6.53312873 -21.6875 2.5 C-15.4420935 -3.87860237 -7.72242948 -3.57519883 0 0 Z " fill="#018FF2" transform="translate(596.375,428.5625)"/>
<path d="M0 0 C8.58 0 17.16 0 26 0 C27 9 27 9 26 11 C26.66 11.33 27.32 11.66 28 12 C26.02 12.99 26.02 12.99 24 14 C24 9.71 24 5.42 24 1 C16.41 1 8.82 1 1 1 C1 34 1 67 1 101 C8.92 101 16.84 101 25 101 C24.97905273 99.05303223 24.95810547 97.10606445 24.93652344 95.10009766 C24.87176455 88.63416055 24.82594455 82.16830075 24.79275131 75.70212746 C24.77196408 71.78544461 24.74381128 67.86911585 24.69824219 63.95263672 C24.65446435 60.16598454 24.6307964 56.37967079 24.62049103 52.59278488 C24.61315641 51.15521296 24.59883501 49.71765749 24.57707977 48.28023148 C24.4388932 38.76279225 24.88409395 30.25330355 30.96484375 22.4921875 C31.61582031 21.95851563 32.26679687 21.42484375 32.9375 20.875 C33.58589844 20.31554687 34.23429688 19.75609375 34.90234375 19.1796875 C37.43709062 17.7541874 39.13625881 17.7709007 42 18 C40.05229116 19.29847256 38.07353188 20.55193845 36.0625 21.75 C30.70269852 25.68781333 28.71436181 29.96863392 27.39480591 36.2696228 C26.60887718 41.70490592 26.77995583 47.16479766 26.83984375 52.64453125 C26.84779028 54.61123203 26.8557318 56.57793284 26.86337376 58.54463482 C26.8764236 61.27480762 26.89864227 64.00487494 26.92095947 66.73498535 C26.95916986 71.53426685 26.98737939 76.33359571 27.00868225 81.13298035 C27.0209251 83.68274637 27.03851472 86.2324935 27.06199646 88.78218079 C27.06852737 89.9340538 27.07505829 91.08592682 27.08178711 92.27270508 C27.09004013 93.28480545 27.09829315 94.29690582 27.10679626 95.3396759 C27.01085767 97.7295325 26.68741847 99.71913902 26 102 C22.59346493 102.76673688 19.44255363 103.12816701 15.953125 103.1328125 C14.56287109 103.13474609 14.56287109 103.13474609 13.14453125 103.13671875 C12.18933594 103.13285156 11.23414063 103.12898437 10.25 103.125 C9.27933594 103.12886719 8.30867187 103.13273438 7.30859375 103.13671875 C5.92607422 103.13478516 5.92607422 103.13478516 4.515625 103.1328125 C3.67290039 103.13168457 2.83017578 103.13055664 1.96191406 103.12939453 C0 103 0 103 -1 102 C-1.0891514 99.74167758 -1.10684353 97.48052175 -1.09765625 95.22045898 C-1.09619598 94.51139908 -1.09473572 93.80233917 -1.0932312 93.0717926 C-1.08941524 91.52595263 -1.08328831 89.98011708 -1.07516479 88.43429375 C-1.06243223 85.98304753 -1.05589244 83.53185529 -1.05102539 81.08058167 C-1.0376297 74.98523191 -1.01355427 68.88993262 -0.98962402 62.7946167 C-0.96983021 57.65692999 -0.9542079 52.51926303 -0.94406128 47.38154793 C-0.93761204 44.97539374 -0.92509763 42.56932059 -0.91235352 40.16319275 C-0.90871664 38.67056345 -0.90536546 37.17793341 -0.90234375 35.68530273 C-0.89710693 34.39148178 -0.89187012 33.09766083 -0.88647461 31.76463318 C-0.96959502 29.00826432 -1.16419059 26.46600838 -1.53344727 23.75013733 C-2.01519379 19.87787278 -1.6499094 16.82724425 -1 13 C-0.85584832 9.82866306 -0.9856544 8.04303681 -2 5 C-1.34 3.35 -0.68 1.7 0 0 Z " fill="#0366C0" transform="translate(619,464)"/>
<path d="M0 0 C8.91 0 17.82 0 27 0 C27.89227067 12.15217073 28.13333539 24.19382377 28.09765625 36.375 C28.09578576 38.28027306 28.09436485 40.1855466 28.09336853 42.09082031 C28.08959295 47.04888288 28.07980646 52.00691506 28.06866455 56.96496582 C28.05834237 62.0469522 28.05384801 67.12894361 28.04882812 72.2109375 C28.03817854 82.14063818 28.02116354 92.07031654 28 102 C24.37101447 103.54484212 22.17521335 104.20223726 18.25 103.625 C14.7933837 103.17998652 11.48560302 102.9437806 8 103 C4 103 4 103 2 102 C1.505 102.99 1.505 102.99 1 104 C-0.12362521 100.62912438 -0.1134966 98.10938661 -0.09765625 94.55664062 C-0.09619598 93.9075322 -0.09473572 93.25842377 -0.0932312 92.58964539 C-0.0894291 91.18188211 -0.08331662 89.7741236 -0.07516479 88.36637878 C-0.06240102 86.1389775 -0.05588558 83.91163576 -0.05102539 81.6842041 C-0.03765372 76.15269909 -0.01343697 70.62125081 0.01037598 65.08978271 C0.03009026 60.41452862 0.04573739 55.73929544 0.05593872 51.06401062 C0.06242631 48.86868535 0.07493418 46.6734462 0.08764648 44.47814941 C0.09127888 43.13322017 0.09463063 41.78829012 0.09765625 40.44335938 C0.10551147 38.68155334 0.10551147 38.68155334 0.11352539 36.88415527 C0.13139663 33.92973966 0.13139663 33.92973966 -1 31 C-0.9382344 28.66413732 -0.80458627 26.32976785 -0.625 24 C-0.53476562 22.7625 -0.44453125 21.525 -0.3515625 20.25 C0 17 0 17 1 14 C0.34 14 -0.32 14 -1 14 C-0.9278125 13.07316406 -0.855625 12.14632813 -0.78125 11.19140625 C-0.6884375 9.99386719 -0.595625 8.79632813 -0.5 7.5625 C-0.4071875 6.36753906 -0.314375 5.17257812 -0.21875 3.94140625 C-0.06058137 1.97251499 -0.06058137 1.97251499 0 0 Z M2 1 C2 34 2 67 2 101 C9.92 101 17.84 101 26 101 C26 68 26 35 26 1 C18.08 1 10.16 1 2 1 Z " fill="#0252A8" transform="translate(573,464)"/>
<path d="M0 0 C4.89459116 4.32545265 6.87166332 8.88556333 7.6875 15.375 C7.77116924 17.62034235 7.80532979 19.8678495 7.80102539 22.11474609 C7.80117142 22.75935791 7.80131744 23.40396973 7.8014679 24.06811523 C7.80077661 26.17825805 7.79302133 28.28831029 7.78515625 30.3984375 C7.78328928 31.8695979 7.78186669 33.34075892 7.78086853 34.81192017 C7.77706533 38.66865785 7.76725398 42.52535738 7.75616455 46.38208008 C7.74590302 50.32372522 7.74136078 54.26537658 7.73632812 58.20703125 C7.72562958 65.92970684 7.70805075 73.6523432 7.6875 81.375 C15.6075 81.375 23.5275 81.375 31.6875 81.375 C31.60159422 72.32486149 31.5076393 63.27490096 31.39997292 54.22499466 C31.35027756 50.02161126 31.30394795 45.81824978 31.265625 41.61474609 C31.22843062 37.54919153 31.18198419 33.48383347 31.12943649 29.4184494 C31.1110721 27.87655882 31.09589987 26.33462642 31.08415604 24.7926712 C31.01348171 15.82427825 30.51768961 7.19303024 28.6875 -1.625 C34.91227993 4.59977993 33.07847531 16.58952156 33.171875 24.80078125 C33.19569919 26.39642624 33.22006096 27.99206328 33.24493408 29.58769226 C33.29463259 32.91689051 33.33748086 36.24608787 33.37548828 39.57543945 C33.42482659 43.84396895 33.49196841 48.11200494 33.56423569 52.38020039 C33.61786644 55.66830645 33.66186224 58.95648735 33.70294952 62.24477196 C33.72384043 63.81930051 33.74780464 65.39379139 33.77489471 66.96822548 C33.81127069 69.16282947 33.83461062 71.35719497 33.85449219 73.55200195 C33.87875275 75.42442314 33.87875275 75.42442314 33.90350342 77.33467102 C33.6875 80.375 33.6875 80.375 31.6875 83.375 C29.16552734 83.71557617 29.16552734 83.71557617 26.0234375 83.66796875 C24.90195312 83.65830078 23.78046875 83.64863281 22.625 83.63867188 C20.8615625 83.6009668 20.8615625 83.6009668 19.0625 83.5625 C17.87914062 83.54896484 16.69578125 83.53542969 15.4765625 83.52148438 C12.54642461 83.48603916 9.61718541 83.43662769 6.6875 83.375 C4.92526568 79.58470224 4.46683372 76.73049015 4.58398438 72.56591797 C4.62392517 70.84790482 4.62392517 70.84790482 4.66467285 69.09518433 C4.70314331 67.86494537 4.74161377 66.63470642 4.78125 65.3671875 C4.82675021 63.41629686 4.87223734 61.46540582 4.91698456 59.51449776 C5.01459874 55.40570393 5.13068695 51.29739193 5.24468994 47.18902588 C5.33776665 43.81446824 5.42638208 40.43993428 5.50354004 37.06497192 C5.56218388 34.53921981 5.63057581 32.01366864 5.71032715 29.48849487 C6.10111581 14.93261743 6.10111581 14.93261743 -0.3125 2.375 C-4.31530474 0.3028767 -7.65943811 0.15978663 -12.125 0.25 C-13.28644531 0.26804687 -14.44789063 0.28609375 -15.64453125 0.3046875 C-16.96517578 0.33949219 -16.96517578 0.33949219 -18.3125 0.375 C-17.3125 -1.625 -17.3125 -1.625 -15.3125 -2.3125 C-9.75563445 -2.89134016 -5.04742497 -2.47609527 0 0 Z " fill="#045BAD" transform="translate(735.3125,483.625)"/>
<path d="M0 0 C0.66 0 1.32 0 2 0 C6.37978454 10.16720843 7.69718072 18.9748913 7.48828125 30.0234375 C7.47892461 31.50557241 7.47182204 32.98772307 7.46684265 34.46987915 C7.44799606 38.32036073 7.399098 42.16985852 7.34332275 46.0199585 C7.29163906 49.96889955 7.26922521 53.91800378 7.24414062 57.8671875 C7.19094892 65.57861974 7.1032065 73.28904522 7 81 C14.92 81 22.84 81 31 81 C31 59.88 31 38.76 31 17 C31.33 17 31.66 17 32 17 C33.24627547 30.6359678 33.11390608 44.2566935 33.0625 57.9375 C33.05747365 60.27799383 33.05291276 62.61848871 33.04882812 64.95898438 C33.03791546 70.63934615 33.02126779 76.31966805 33 82 C29.25882822 84.0637825 27.02601958 84.08097365 22.75 83.625 C18.93507051 83.25636636 15.20800892 82.92875448 11.375 83 C8 83 8 83 5 82 C5.00444122 81.247686 5.00888245 80.49537201 5.01345825 79.72026062 C5.05374356 72.58636501 5.08408948 65.45252554 5.10362434 58.31854534 C5.11400542 54.65201095 5.12805913 50.98557155 5.15087891 47.3190918 C5.17281203 43.77236324 5.18461115 40.22572531 5.18975449 36.6789341 C5.19517936 34.68563978 5.21075852 32.69238127 5.22659302 30.69914246 C5.22791835 19.81607404 4.41246091 10.56201427 -1 1 C-0.67 0.67 -0.34 0.34 0 0 Z " fill="#0563B7" transform="translate(675,484)"/>
<path d="M0 0 C1.75032844 0.14183696 3.50025534 0.28863429 5.25 0.4375 C6.71179688 0.55931641 6.71179688 0.55931641 8.203125 0.68359375 C10.56461753 0.95074584 12.71901065 1.35371968 15 2 C15 1.34 15 0.68 15 0 C17.31 0.66 19.62 1.32 22 2 C22.33 1.34 22.66 0.68 23 0 C24.63483184 1.63483184 24.16881713 3.50336033 24.20874023 5.76000977 C24.23767616 7.28278282 24.23767616 7.28278282 24.26719666 8.83631897 C24.3248441 13.50843972 24.37426746 18.18040135 24.4050293 22.8527832 C24.42656799 25.3135383 24.460621 27.77421765 24.50756836 30.23461914 C24.5746914 33.78306301 24.60205587 37.32991628 24.62109375 40.87890625 C24.64892441 41.97191544 24.67675507 43.06492462 24.70542908 44.1910553 C24.6856048 51.60235051 23.15560549 55.67135355 18 61 C17.175 61.886875 16.35 62.77375 15.5 63.6875 C14.675 64.450625 13.85 65.21375 13 66 C12.154375 66.804375 11.30875 67.60875 10.4375 68.4375 C3.26966168 74.25675019 -4.80425701 77.69347523 -14 78 C-10.96435153 75.97623435 -8.30239189 74.9653872 -4.875 73.75 C5.54186423 69.76572266 15.81351162 63.37297676 21 53 C21.11856636 51.3972902 21.17706124 49.78994647 21.20532227 48.18310547 C21.22526749 47.18221893 21.24521271 46.1813324 21.26576233 45.15011597 C21.28247482 44.06674957 21.29918732 42.98338318 21.31640625 41.8671875 C21.33718735 40.76021515 21.35796844 39.6532428 21.37937927 38.51272583 C21.44490991 34.96688201 21.50377614 31.42096246 21.5625 27.875 C21.60568187 25.4752525 21.64929605 23.07551273 21.69335938 20.67578125 C21.80141061 14.78393075 21.90045824 8.89202508 22 3 C14.74 3 7.48 3 0 3 C0 2.01 0 1.02 0 0 Z " fill="#031322" transform="translate(881,488)"/>
<path d="M0 0 C0.98484375 -0.02900391 1.9696875 -0.05800781 2.984375 -0.08789062 C10.23428082 -0.15157223 10.23428082 -0.15157223 14.09375 2.1875 C16.28967075 4.63541166 17.39468206 6.05891605 18 9.3125 C16.8796668 13.37370785 16.04047074 15.62903777 12.47265625 17.97265625 C8.0640008 19.67363355 4.12503978 19.94735928 -0.5625 20.125 C-1.81836914 20.20137695 -1.81836914 20.20137695 -3.09960938 20.27929688 C-7.56104128 20.48770897 -10.94341218 20.46108128 -15 18.3125 C-15.02578125 19.12589844 -15.0515625 19.93929688 -15.078125 20.77734375 C-16.00210109 39.44586074 -21.1975776 57.30765989 -31 73.3125 C-32 70.3125 -32 70.3125 -30.5234375 67.15234375 C-29.81067361 65.84970629 -29.09426467 64.5490593 -28.375 63.25 C-20.80042392 48.7927483 -18.18659912 33.34756021 -16 17.3125 C-15.20303711 17.3031543 -14.40607422 17.29380859 -13.58496094 17.28417969 C-9.97267825 17.23048502 -6.36169179 17.14683392 -2.75 17.0625 C-0.86861328 17.04123047 -0.86861328 17.04123047 1.05078125 17.01953125 C2.25605469 16.98730469 3.46132813 16.95507812 4.703125 16.921875 C5.81333008 16.90092773 6.92353516 16.87998047 8.06738281 16.85839844 C11.63517733 16.19426353 12.87224733 15.2182244 15 12.3125 C15.08916154 8.68600049 15.08916154 8.68600049 14 5.3125 C10.51321064 2.98797376 8.93032429 3.01476266 4.80078125 2.8984375 C3.59228516 2.85976563 2.38378906 2.82109375 1.13867188 2.78125 C-0.12396484 2.7503125 -1.38660156 2.719375 -2.6875 2.6875 C-3.96173828 2.64882813 -5.23597656 2.61015625 -6.54882812 2.5703125 C-9.69907292 2.47592314 -12.84930991 2.3903417 -16 2.3125 C-16 1.9825 -16 1.6525 -16 1.3125 C-10.64463882 0.12062022 -5.46705687 0.05366875 0 0 Z " fill="#056BC2" transform="translate(400,487.6875)"/>
<path d="M0 0 C0.66 0.33 1.32 0.66 2 1 C2 13.21 2 25.42 2 38 C14.08687056 37.88126145 14.08687056 37.88126145 26.17333984 37.72973633 C27.68586596 37.72097652 29.19839913 37.71333139 30.7109375 37.70703125 C31.89393433 37.6840094 31.89393433 37.6840094 33.10083008 37.66052246 C35.37646484 37.65942383 35.37646484 37.65942383 39 38 C39.66 38.99 40.32 39.98 41 41 C40.57912109 41.3494165 40.15824219 41.69883301 39.72460938 42.05883789 C32.59890181 48.12549364 26.08797172 54.80185453 19.5 61.4375 C18.28408886 62.6584369 17.06794484 63.87914192 15.8515625 65.09960938 C12.89835034 68.06374013 9.94830602 71.03098958 7 74 C6.34 73.67 5.68 73.34 5 73 C15.56 62.44 26.12 51.88 37 41 C18.685 40.505 18.685 40.505 0 40 C-0.16543835 34.46417832 -0.32781877 28.9284498 -0.48217773 23.39233398 C-0.5356766 21.50751524 -0.5910118 19.62274772 -0.64819336 17.73803711 C-0.7298851 15.03510589 -0.8050554 12.33206161 -0.87890625 9.62890625 C-0.90594131 8.78099014 -0.93297638 7.93307404 -0.96083069 7.0594635 C-1.01280526 5.04026894 -1.01188213 3.01982842 -1 1 C-0.67 0.67 -0.34 0.34 0 0 Z " fill="#066EC4" transform="translate(370,341)"/>
<path d="M0 0 C2.57729198 2.57729198 3.30280655 5.10218442 4.625 8.5 C10.14324864 21.90808965 20.66880442 33.07502418 34 39 C42.26205366 42.15964843 49.82366416 44.13842356 58.7109375 44.09765625 C59.95488281 44.09443359 61.19882812 44.09121094 62.48046875 44.08789062 C63.76566406 44.07951172 65.05085937 44.07113281 66.375 44.0625 C67.68339844 44.05798828 68.99179687 44.05347656 70.33984375 44.04882812 C73.55994281 44.03707594 76.7799477 44.02064543 80 44 C79.505 44.99 79.505 44.99 79 46 C63.84428332 50.70768755 44.69395601 46.75906116 30.6875 40.3125 C16.19827588 32.46826604 5.41432741 20.64822658 0 5 C-0.15625 2.11328125 -0.15625 2.11328125 0 0 Z " fill="#041425" transform="translate(786,522)"/>
<path d="M0 0 C-1.94770884 1.29847256 -3.92646812 2.55193845 -5.9375 3.75 C-11.29730148 7.68781333 -13.28563819 11.96863392 -14.60519409 18.2696228 C-15.39112282 23.70490592 -15.22004417 29.16479766 -15.16015625 34.64453125 C-15.15220972 36.61123203 -15.1442682 38.57793284 -15.13662624 40.54463482 C-15.1235764 43.27480762 -15.10135773 46.00487494 -15.07904053 48.73498535 C-15.04083014 53.53426685 -15.01262061 58.33359571 -14.99131775 63.13298035 C-14.9790749 65.68274637 -14.96148528 68.2324935 -14.93800354 70.78218079 C-14.93147263 71.9340538 -14.92494171 73.08592682 -14.91821289 74.27270508 C-14.90995987 75.28480545 -14.90170685 76.29690582 -14.89320374 77.3396759 C-14.98914233 79.7295325 -15.31258153 81.71913902 -16 84 C-19.40653507 84.76673688 -22.55744637 85.12816701 -26.046875 85.1328125 C-27.43712891 85.13474609 -27.43712891 85.13474609 -28.85546875 85.13671875 C-29.81066406 85.13285156 -30.76585937 85.12898437 -31.75 85.125 C-32.72066406 85.12886719 -33.69132813 85.13273438 -34.69140625 85.13671875 C-35.61308594 85.13542969 -36.53476562 85.13414062 -37.484375 85.1328125 C-38.32709961 85.13168457 -39.16982422 85.13055664 -40.03808594 85.12939453 C-42 85 -42 85 -43 84 C-43.64584809 74.73018041 -42.6076757 65.25620313 -42 56 C-41.67 56 -41.34 56 -41 56 C-41 64.91 -41 73.82 -41 83 C-33.08 83 -25.16 83 -17 83 C-17.02094727 81.05303223 -17.04189453 79.10606445 -17.06347656 77.10009766 C-17.12823545 70.63416055 -17.17405545 64.16830075 -17.20724869 57.70212746 C-17.22803592 53.78544461 -17.25618872 49.86911585 -17.30175781 45.95263672 C-17.34553565 42.16598454 -17.3692036 38.37967079 -17.37950897 34.59278488 C-17.38684359 33.15521296 -17.40116499 31.71765749 -17.42292023 30.28023148 C-17.5611068 20.76279225 -17.11590605 12.25330355 -11.03515625 4.4921875 C-10.38417969 3.95851563 -9.73320313 3.42484375 -9.0625 2.875 C-8.41410156 2.31554687 -7.76570312 1.75609375 -7.09765625 1.1796875 C-4.56290938 -0.2458126 -2.86374119 -0.2290993 0 0 Z " fill="#0565B8" transform="translate(661,482)"/>
<path d="M0 0 C0.99 0.495 0.99 0.495 2 1 C2.62238169 2.98218245 3.17265341 4.98720611 3.6875 7 C6.64290764 16.8838358 11.45158506 22.92713224 20.54296875 27.84765625 C30.43888098 32.48882336 42.51854713 32.55669159 52.8046875 28.9921875 C56.76200338 27.20364972 61.00217978 24.99564045 63 21 C63.23215595 17.64663634 63.39440527 14.30011977 63.51757812 10.94140625 C63.70542448 7.09232806 64.13971166 4.35586898 66 1 C66.14622024 4.20784721 66.23436651 7.41482961 66.3125 10.625 C66.35439453 11.52863281 66.39628906 12.43226563 66.43945312 13.36328125 C66.51971531 17.7616491 66.55526081 20.96187271 63.7109375 24.4765625 C55.51356848 32.10696652 46.77943831 34.54346617 35.63671875 34.24609375 C24.5026653 33.20691543 16.01796639 29.41025125 8.25 21.375 C3.35697738 15.45546914 -0.47028149 7.79527202 0 0 Z " fill="#021222" transform="translate(812,511)"/>
<path d="M0 0 C0.99 0.495 0.99 0.495 2 1 C1.34560692 1.55113464 1.34560692 1.55113464 0.67799377 2.11340332 C-21.81267788 19.11958978 -21.81267788 19.11958978 -34.55119324 42.45167542 C-34.65827219 47.17225728 -34.09128516 51.74098868 -33.52758789 56.42797852 C-32.9597387 63.76304266 -33.50722354 68.26179463 -38.09222412 73.99142456 C-54.84152779 92.94717593 -54.84152779 92.94717593 -64 96 C-62.11730585 90.35191754 -56.6427659 86.72650536 -52.3125 82.8125 C-51.79719727 82.32386475 -51.28189453 81.83522949 -50.75097656 81.33178711 C-48.24226349 78.96052194 -45.90556323 76.93859768 -42.99609375 75.046875 C-39.72777598 72.68513186 -37.41464107 70.78719374 -36 67 C-34.83347291 58.61534216 -33.118265 44.76347001 -37 37 C-36.34 37 -35.68 37 -35 37 C-34.73716217 36.41184509 -34.47432434 35.82369019 -34.20352173 35.2177124 C-32.94186496 32.89287538 -31.6164494 31.37510246 -29.74365234 29.51660156 C-29.08311859 28.85621887 -28.42258484 28.19583618 -27.74203491 27.51544189 C-27.03052277 26.81425232 -26.31901062 26.11306274 -25.5859375 25.390625 C-24.85629791 24.66381531 -24.12665833 23.93700562 -23.37490845 23.18817139 C-21.0462612 20.87070802 -18.71075174 18.5603005 -16.375 16.25 C-14.79381347 14.67884556 -13.21307875 13.10723629 -11.6328125 11.53515625 C-7.7604331 7.68481347 -3.88239829 3.84023883 0 0 Z " fill="#0562BA" transform="translate(365,346)"/>
<path d="M0 0 C10.89 0 21.78 0 33 0 C33 13.11029866 30.13952683 25.58141951 26 38 C25.34 38 24.68 38 24 38 C23.7421875 38.87011719 23.484375 39.74023438 23.21875 40.63671875 C21.98150742 44.05103241 20.46616948 46.76743668 18.5 49.8125 C17.8915625 50.76769531 17.283125 51.72289062 16.65625 52.70703125 C15 55 15 55 13 56 C14.47359447 51.93257853 16.4831807 48.48949177 18.75 44.8125 C26.56975437 31.51695684 29.69638099 17.10150242 32 2 C16.655 2.495 16.655 2.495 1 3 C0.67 4.65 0.34 6.3 0 8 C-0.33 8 -0.66 8 -1 8 C-1.125 2.25 -1.125 2.25 0 0 Z " fill="#046AC3" transform="translate(334,505)"/>
<path d="M0 0 C1 2 1 2 0.8125 3.875 C0 6 0 6 -1.80078125 7.61328125 C-4.77104087 10.83677793 -6.27006543 14.31682526 -8 18.3125 C-8.34957764 19.11647217 -8.69915527 19.92044434 -9.05932617 20.7487793 C-14.74584079 34.17479292 -16.91032797 47.71051748 -18.67456055 62.08325195 C-19 64 -19 64 -20 66 C-28.58 66.33 -37.16 66.66 -46 67 C-46 66.34 -46 65.68 -46 65 C-44.06300627 64.82754905 -42.12535992 64.66242831 -40.1875 64.5 C-39.10855469 64.4071875 -38.02960938 64.314375 -36.91796875 64.21875 C-31.94128111 63.94088907 -26.98289762 63.9593279 -22 64 C-21.90501221 63.3922876 -21.81002441 62.7845752 -21.7121582 62.15844727 C-18.33079955 40.85287763 -14.47993866 16.95212331 0 0 Z " fill="#066CC2" transform="translate(158,424)"/>
<path d="M0 0 C7.65208729 3.29570096 15.44577078 7.77291301 20.8125 14.25 C20.8125 14.91 20.8125 15.57 20.8125 16.25 C21.4725 16.25 22.1325 16.25 22.8125 16.25 C24.13671875 17.9296875 24.13671875 17.9296875 25.5 20.125 C25.95761719 20.84429687 26.41523437 21.56359375 26.88671875 22.3046875 C27.34498047 23.26761719 27.34498047 23.26761719 27.8125 24.25 C27.4825 24.91 27.1525 25.57 26.8125 26.25 C25.64000647 24.79634731 24.47466184 23.33692581 23.3125 21.875 C22.6628125 21.06289063 22.013125 20.25078125 21.34375 19.4140625 C19.8125 17.25 19.8125 17.25 19.8125 15.25 C19.23628906 14.98832031 18.66007813 14.72664063 18.06640625 14.45703125 C15.6724875 13.1750193 13.82420197 11.68603288 11.75 9.9375 C0.58306272 1.10697299 -11.30931552 -0.99114394 -25.125 -1.875 C-27.00928711 -2.00455078 -27.00928711 -2.00455078 -28.93164062 -2.13671875 C-32.0165386 -2.34785245 -35.10173158 -2.55206786 -38.1875 -2.75 C-27.41391424 -8.61866917 -10.74462586 -3.93178738 0 0 Z " fill="#041524" transform="translate(876.1875,430.75)"/>
<path d="M0 0 C8.78239734 2.43287111 14.58734881 7.24362481 20.00390625 14.4609375 C21.44140625 17.4609375 21.44140625 17.4609375 22.00390625 19.4609375 C27.63737073 18.97376683 31.5106668 16.73482519 36.25390625 13.8984375 C43.76870139 9.4609375 43.76870139 9.4609375 46.00390625 9.4609375 C46.00390625 10.1209375 46.00390625 10.7809375 46.00390625 11.4609375 C42.40535615 13.47117126 38.799194 15.4673373 35.19140625 17.4609375 C34.16724609 18.03328125 33.14308594 18.605625 32.08789062 19.1953125 C31.10498047 19.73671875 30.12207031 20.278125 29.109375 20.8359375 C27.75042114 21.59003906 27.75042114 21.59003906 26.36401367 22.359375 C24.00390625 23.4609375 24.00390625 23.4609375 21.00390625 23.4609375 C20.01390625 20.4909375 19.02390625 17.5209375 18.00390625 14.4609375 C17.34390625 14.4609375 16.68390625 14.4609375 16.00390625 14.4609375 C15.13765625 13.0996875 15.13765625 13.0996875 14.25390625 11.7109375 C10.6375804 6.48735572 6.10916794 3.95845452 0.00390625 2.4609375 C-7.46518529 1.31184649 -14.51595835 1.52049494 -21.99609375 2.4609375 C-16.48231103 -2.77577072 -7.00771135 -1.26083985 0 0 Z " fill="#031424" transform="translate(856.99609375,450.5390625)"/>
<path d="M0 0 C0.33 0.66 0.66 1.32 1 2 C8.26 2 15.52 2 23 2 C23 18.5 23 35 23 52 C22.01 52.495 22.01 52.495 21 53 C21.33 36.83 21.66 20.66 22 4 C6.82 4 -8.36 4 -24 4 C-24 3.67 -24 3.34 -24 3 C-16.08 2.67 -8.16 2.34 0 2 C0 1.34 0 0.68 0 0 Z " fill="#003053" transform="translate(880,489)"/>
<path d="M0 0 C-1.03898438 0.47308594 -2.07796875 0.94617188 -3.1484375 1.43359375 C-11.98410336 5.57508007 -19.18202491 9.8652045 -26 17 C-26.63164063 17.61230469 -27.26328125 18.22460938 -27.9140625 18.85546875 C-35.74633747 26.94651932 -40.38302105 38.18315368 -43 49 C-43.33 49 -43.66 49 -44 49 C-44.21119689 35.90579264 -36.67560257 24.29066394 -28 15 C-21.93650252 8.87059494 -9.39589629 -3.47996159 0 0 Z " fill="#041425" transform="translate(829,431)"/>
<path d="M0 0 C3.35414799 -0.02929977 6.70826253 -0.0468989 10.0625 -0.0625 C11.00544922 -0.07087891 11.94839844 -0.07925781 12.91992188 -0.08789062 C18.0630768 -0.10581103 22.93258427 0.10740389 28 1 C26 3 26 3 23.56982422 3.13525391 C22.07733154 3.05670166 22.07733154 3.05670166 20.5546875 2.9765625 C18.94013672 2.89921875 18.94013672 2.89921875 17.29296875 2.8203125 C15.60107422 2.72363281 15.60107422 2.72363281 13.875 2.625 C12.17150391 2.53992188 12.17150391 2.53992188 10.43359375 2.453125 C7.62191278 2.31135957 4.8108789 2.15686655 2 2 C2 8.6 2 15.2 2 22 C9.59 22 17.18 22 25 22 C21.76495642 24.15669572 20.87809037 24.24833577 17.1484375 24.23046875 C16.21515625 24.22853516 15.281875 24.22660156 14.3203125 24.22460938 C12.86238281 24.20624023 12.86238281 24.20624023 11.375 24.1875 C10.3953125 24.18685547 9.415625 24.18621094 8.40625 24.18554688 C1.14026024 24.14026024 1.14026024 24.14026024 0 23 C-0.08713831 21.29227642 -0.10700007 19.58101351 -0.09765625 17.87109375 C-0.09443359 16.83662109 -0.09121094 15.80214844 -0.08789062 14.73632812 C-0.07951172 13.64771484 -0.07113281 12.55910156 -0.0625 11.4375 C-0.05798828 10.34501953 -0.05347656 9.25253906 -0.04882812 8.12695312 C-0.03699826 5.41791505 -0.02051543 2.70898401 0 0 Z " fill="#010E1D" transform="translate(852,489)"/>
<path d="M0 0 C1.21236328 0.02707031 1.21236328 0.02707031 2.44921875 0.0546875 C3.37154297 0.08949219 3.37154297 0.08949219 4.3125 0.125 C4.3125 0.785 4.3125 1.445 4.3125 2.125 C3.075 2.0425 1.8375 1.96 0.5625 1.875 C-2.69622649 1.86346468 -3.43499429 1.93076484 -6.125 4 C-8.83565013 7.68648418 -8.86500178 10.10005844 -9.00390625 14.6640625 C-9.04580078 15.96601563 -9.08769531 17.26796875 -9.13085938 18.609375 C-9.17067299 19.98958045 -9.21038522 21.36978883 -9.25 22.75 C-9.29319407 24.13803415 -9.33680865 25.52605528 -9.38085938 26.9140625 C-9.48721934 30.31758129 -9.58788918 33.721277 -9.6875 37.125 C-16.1225 37.62 -16.1225 37.62 -22.6875 38.125 C-22.6875 38.455 -22.6875 38.785 -22.6875 39.125 C-26.6475 39.125 -30.6075 39.125 -34.6875 39.125 C-31.39015861 36.92677241 -29.38166469 36.57337603 -25.5 36 C-23.86998047 35.74863281 -23.86998047 35.74863281 -22.20703125 35.4921875 C-18.32188944 35.08685639 -14.59117436 35.06527165 -10.6875 35.125 C-10.70321045 34.30298096 -10.7189209 33.48096191 -10.73510742 32.6340332 C-10.79755073 28.90192572 -10.83652136 25.16992828 -10.875 21.4375 C-10.90013672 20.14392578 -10.92527344 18.85035156 -10.95117188 17.51757812 C-10.96083984 16.27041016 -10.97050781 15.02324219 -10.98046875 13.73828125 C-10.9961792 12.59141846 -11.01188965 11.44455566 -11.02807617 10.26293945 C-10.64626461 6.74507281 -9.80640677 4.93254372 -7.6875 2.125 C-4.48369983 -0.01086678 -3.66810033 -0.10632175 0 0 Z " fill="#085CAE" transform="translate(263.6875,335.875)"/>
<path d="M0 0 C0.66 0 1.32 0 2 0 C6.33795082 10.10108341 7.69909955 18.82988425 7.48828125 29.8046875 C7.47892402 31.26440197 7.47182173 32.72413244 7.46684265 34.18386841 C7.44800063 37.97517366 7.39910702 41.76547897 7.34332275 45.55639648 C7.29162877 49.44501223 7.26922308 53.33379393 7.24414062 57.22265625 C7.19095744 64.81555378 7.10593394 72.40763536 7 80 C6.67 80 6.34 80 6 80 C5.99191315 79.27274216 5.98382629 78.54548431 5.97549438 77.79618835 C5.8971209 70.89760588 5.80970635 63.99918886 5.71247292 57.1008482 C5.66281001 53.55547074 5.61648106 50.01011884 5.578125 46.46459961 C5.53374009 42.37596029 5.47421856 38.28765668 5.4140625 34.19921875 C5.40251129 32.94356613 5.39096008 31.68791351 5.37905884 30.39421082 C5.20150764 19.66757203 4.33648405 10.42778849 -1 1 C-0.67 0.67 -0.34 0.34 0 0 Z " fill="#014196" transform="translate(675,484)"/>
<path d="M0 0 C0.33 0 0.66 0 1 0 C1.33 9.9 1.66 19.8 2 30 C2.66 30.33 3.32 30.66 4 31 C3.01 31 2.02 31 1 31 C1 31.66 1 32.32 1 33 C2.19625 33.04125 3.3925 33.0825 4.625 33.125 C13.86652387 34.15020867 23.41204295 38.41204295 30 45 C28.68 45.99 27.36 46.98 26 48 C25.95875 47.4225 25.9175 46.845 25.875 46.25 C24.54557503 42.83147865 22.1692129 41.54274892 19 40 C12.77024885 37.63580081 6.40502031 35.8300058 0 34 C0 22.78 0 11.56 0 0 Z " fill="#0461B5" transform="translate(271,389)"/>
<path d="M0 0 C0.66 0.33 1.32 0.66 2 1 C2 13.21 2 25.42 2 38 C6.62 38 11.24 38 16 38 C14 40 14 40 10.7421875 40.1953125 C8.82792969 40.16050781 8.82792969 40.16050781 6.875 40.125 C4.95300781 40.09792969 4.95300781 40.09792969 2.9921875 40.0703125 C2.00476563 40.04710937 1.01734375 40.02390625 0 40 C-0.16722049 34.46428137 -0.32781942 28.92842623 -0.48217773 23.39233398 C-0.5356766 21.50751524 -0.5910118 19.62274772 -0.64819336 17.73803711 C-0.7298851 15.03510589 -0.8050554 12.33206161 -0.87890625 9.62890625 C-0.90594131 8.78099014 -0.93297638 7.93307404 -0.96083069 7.0594635 C-1.01280526 5.04026894 -1.01188213 3.01982842 -1 1 C-0.67 0.67 -0.34 0.34 0 0 Z " fill="#0770CB" transform="translate(370,341)"/>
<path d="M0 0 C1.35114472 3.05744748 0.9224598 4.22040365 -0.21484375 7.453125 C-0.77532453 8.7248935 -1.35237856 9.98937844 -1.9375 11.25 C-2.948125 13.4775 -3.95875 15.705 -5 18 C3.58 18 12.16 18 21 18 C21.33 16.02 21.66 14.04 22 12 C22.86173773 9.57999041 23.92410684 7.33889818 25 5 C26.32830615 8.98491845 25.23204404 10.40048548 23.5625 14.1875 C23.08941406 15.27417969 22.61632812 16.36085938 22.12890625 17.48046875 C21.75636719 18.31191406 21.38382812 19.14335938 21 20 C20.41508789 19.99476318 19.83017578 19.98952637 19.22753906 19.98413086 C16.56837037 19.96329842 13.90921889 19.95031993 11.25 19.9375 C10.32960938 19.92912109 9.40921875 19.92074219 8.4609375 19.91210938 C7.57148438 19.90888672 6.68203125 19.90566406 5.765625 19.90234375 C4.54020996 19.89448853 4.54020996 19.89448853 3.29003906 19.88647461 C0.99848941 19.9216289 0.99848941 19.9216289 -1.15722656 20.56469727 C-3.6769901 21.15991963 -4.84651053 20.30747575 -7 19 C-4.94235079 12.54646385 -2.57616518 6.2638737 0 0 Z " fill="#055DAD" transform="translate(439,547)"/>
<path d="M0 0 C0.33 0 0.66 0 1 0 C1.16727437 4.25392767 1.32786758 8.50803809 1.48217773 12.76245117 C1.53566237 14.21076301 1.59099659 15.65900775 1.64819336 17.10717773 C1.72992512 19.18458582 1.80507768 21.2621417 1.87890625 23.33984375 C1.9260376 24.59144287 1.97316895 25.84304199 2.02172852 27.13256836 C2 30 2 30 1 31 C-0.68732212 31.29501607 -2.37561748 31.58531602 -4.06787109 31.85058594 C-12.13589259 33.13299433 -18.94265622 35.36892439 -26.3046875 38.890625 C-27.19414062 39.25671875 -28.08359375 39.6228125 -29 40 C-29.66 39.67 -30.32 39.34 -31 39 C-21.10595758 33.35730393 -12.24416485 30.53329521 -1 29 C-0.67 28.01 -0.34 27.02 0 26 C-0.66 25.67 -1.32 25.34 -2 25 C-1.67 24.67 -1.34 24.34 -1 24 C-0.84235595 22.22130274 -0.74899323 20.43681524 -0.68359375 18.65234375 C-0.64169922 17.57275391 -0.59980469 16.49316406 -0.55664062 15.38085938 C-0.51732422 14.24455078 -0.47800781 13.10824219 -0.4375 11.9375 C-0.37272461 10.22723633 -0.37272461 10.22723633 -0.30664062 8.48242188 C-0.20017161 5.65507805 -0.09815793 2.82764262 0 0 Z " fill="#035BB0" transform="translate(253,392)"/>
<path d="M0 0 C0 3 0 3 -1.43359375 4.5078125 C-2.42552734 5.30832031 -2.42552734 5.30832031 -3.4375 6.125 C-8.24668139 10.14268821 -12.61757426 14.52627373 -17 19 C-15.12865152 23.90876335 -12.82200848 28.60034349 -10.47851562 33.296875 C-8.41949818 37.58103019 -7.44681721 41.26251341 -7 46 C-9.30171994 42.54742009 -10.86601561 38.9193989 -12.5 35.125 C-12.96212891 34.06345703 -12.96212891 34.06345703 -13.43359375 32.98046875 C-15.01247521 29.34158745 -16.55163682 25.69332612 -18 22 C-18.99 22 -19.98 22 -21 22 C-19.58683112 18.79112361 -17.89115422 16.64477563 -15.41015625 14.1796875 C-14.70826172 13.47972656 -14.00636719 12.77976562 -13.28320312 12.05859375 C-12.55037109 11.33800781 -11.81753906 10.61742187 -11.0625 9.875 C-10.33353516 9.14667969 -9.60457031 8.41835938 -8.85351562 7.66796875 C-5.98624216 4.82434832 -3.36994192 2.24662795 0 0 Z " fill="#0367C1" transform="translate(339,429)"/>
<path d="M0 0 C1.27617187 -0.00515625 2.55234375 -0.0103125 3.8671875 -0.015625 C7.125 0.25 7.125 0.25 10.125 2.25 C8.87009766 2.19779297 8.87009766 2.19779297 7.58984375 2.14453125 C-8.53879463 1.76944664 -23.22437413 4.67736502 -35.875 15.25 C-36.535 14.92 -37.195 14.59 -37.875 14.25 C-36.2809419 10.48517173 -34.62281861 8.87412741 -30.9609375 7.30078125 C-29.39710356 6.70408996 -27.82640656 6.12513616 -26.25 5.5625 C-25.09564453 5.12067383 -25.09564453 5.12067383 -23.91796875 4.66992188 C-15.98776047 1.71435849 -8.47531783 -0.03466388 0 0 Z " fill="#0368C3" transform="translate(260.875,437.75)"/>
<path d="M0 0 C2.44563312 2.44563312 3.34131255 4.75525172 4.6875 7.9375 C5.14511719 8.99839844 5.60273437 10.05929687 6.07421875 11.15234375 C7 14 7 14 6 17 C1.89584811 17.02898097 -2.20827753 17.0467922 -6.3125 17.0625 C-7.47974609 17.07087891 -8.64699219 17.07925781 -9.84960938 17.08789062 C-11.52700195 17.09272461 -11.52700195 17.09272461 -13.23828125 17.09765625 C-14.7857605 17.10551147 -14.7857605 17.10551147 -16.36450195 17.11352539 C-19 17 -19 17 -22 16 C-22.984375 14.2578125 -22.984375 14.2578125 -23.75 12.125 C-24.14445313 11.07699219 -24.14445313 11.07699219 -24.546875 10.0078125 C-25 8 -25 8 -24 5 C-21 11.625 -21 11.625 -21 15 C-12.42 15 -3.84 15 5 15 C3.35 11.04 1.7 7.08 0 3 C0 2.01 0 1.02 0 0 Z " fill="#0458A8" transform="translate(558,550)"/>
<path d="M0 0 C0.33 0 0.66 0 1 0 C1 8.91 1 17.82 1 27 C9.25 27 17.5 27 26 27 C22.66643819 29.22237454 21.59573833 29.24742278 17.7109375 29.23046875 C16.68742188 29.22853516 15.66390625 29.22660156 14.609375 29.22460938 C13.54203125 29.21236328 12.4746875 29.20011719 11.375 29.1875 C10.29992187 29.18685547 9.22484375 29.18621094 8.1171875 29.18554688 C0.14022321 29.14022321 0.14022321 29.14022321 -1 28 C-1.64584809 18.73018041 -0.6076757 9.25620313 0 0 Z " fill="#0459AC" transform="translate(619,538)"/>
<path d="M0 0 C0.99 0.33 1.98 0.66 3 1 C2.34773437 1.40089844 1.69546875 1.80179687 1.0234375 2.21484375 C-11.089671 10.09372406 -14.29645532 19.64429684 -18 33 C-18.33 33 -18.66 33 -19 33 C-18.5550985 22.34460912 -15.26234808 13.90752251 -8 6 C-5.50119427 3.73353105 -3.01598836 1.53693223 0 0 Z " fill="#02101E" transform="translate(831,453)"/>
<path d="M0 0 C0.66 0.33 1.32 0.66 2 1 C-1.78388744 4.83329041 -5.57427069 8.65999192 -9.37084961 12.48071289 C-10.66172461 13.78165129 -11.95079964 15.08437829 -13.23803711 16.38891602 C-15.0875885 18.26270045 -16.94349751 20.12997726 -18.80078125 21.99609375 C-19.37588943 22.58152451 -19.95099762 23.16695526 -20.54353333 23.77012634 C-24.65838488 27.88612829 -24.65838488 27.88612829 -28 29 C-26.11730585 23.35191754 -20.6427659 19.72650536 -16.3125 15.8125 C-10.69795395 10.70972386 -5.31239598 5.41817377 0 0 Z " fill="#0270CF" transform="translate(329,413)"/>
<path d="M0 0 C0.66 0 1.32 0 2 0 C2 0.66 2 1.32 2 2 C1.34 2 0.68 2 0 2 C-0.26039063 2.598125 -0.52078125 3.19625 -0.7890625 3.8125 C-2.09066101 6.16377472 -3.29819196 7.3175226 -5.375 9 C-9.24381472 12.27032405 -12.856341 15.73454705 -16.4375 19.3125 C-17.23583252 20.10430664 -17.23583252 20.10430664 -18.05029297 20.91210938 C-20.87512896 23.69135795 -20.87512896 23.69135795 -23 27 C-24.98 26.67 -26.96 26.34 -29 26 C-29 25.67 -29 25.34 -29 25 C-28.11086914 24.7642627 -27.22173828 24.52852539 -26.30566406 24.28564453 C-22.60669311 22.84703441 -20.84178663 21.27802971 -18.109375 18.4296875 C-17.23539062 17.53378906 -16.36140625 16.63789063 -15.4609375 15.71484375 C-14.11902344 14.30912109 -14.11902344 14.30912109 -12.75 12.875 C-10.95752846 11.01397785 -9.16087486 9.15697148 -7.359375 7.3046875 C-6.57014648 6.47952637 -5.78091797 5.65436523 -4.96777344 4.80419922 C-3 3 -3 3 -1 3 C-0.67 2.01 -0.34 1.02 0 0 Z " fill="#0470CD" transform="translate(299,442)"/>
<path d="M0 0 C3.79152334 -0.0867982 7.58279296 -0.14032207 11.375 -0.1875 C12.99535156 -0.22520508 12.99535156 -0.22520508 14.6484375 -0.26367188 C15.6796875 -0.27333984 16.7109375 -0.28300781 17.7734375 -0.29296875 C18.72653809 -0.3086792 19.67963867 -0.32438965 20.66162109 -0.34057617 C21.81911865 -0.17199097 21.81911865 -0.17199097 23 0 C23.66 0.99 24.32 1.98 25 3 C24.67 3.99 24.34 4.98 24 6 C23.67 4.68 23.34 3.36 23 2 C13.595 2.495 13.595 2.495 4 3 C4.33 4.32 4.66 5.64 5 7 C3.29115995 5.37660195 1.62553283 3.70680947 0 2 C0 1.34 0 0.68 0 0 Z " fill="#036DC8" transform="translate(347,436)"/>
<path d="M0 0 C8.78003938 0.35836895 16.62722978 2.44017216 25 5 C26.33036508 5.34498932 27.66233868 5.68448283 29 6 C29 6.66 29 7.32 29 8 C29.99 8.33 30.98 8.66 32 9 C30 10 30 10 27.05859375 9.07421875 C25.26615234 8.38779297 25.26615234 8.38779297 23.4375 7.6875 C18.66308573 5.90281479 13.98189546 4.38653843 8.9765625 3.40234375 C5.92865445 2.78191978 2.97972163 1.88757666 0 1 C0 0.67 0 0.34 0 0 Z " fill="#036BC5" transform="translate(272,388)"/>
<path d="M0 0 C1.42944945 2.35438733 2.08661261 3.48032433 1.625 6.25 C1.41875 6.8275 1.2125 7.405 1 8 C-4.37909992 9.12585812 -4.37909992 9.12585812 -7.3125 8.53125 C-10.37271238 7.9263243 -13.19578123 7.90325034 -16.3125 7.9375 C-17.91544922 7.95103516 -17.91544922 7.95103516 -19.55078125 7.96484375 C-20.35902344 7.97644531 -21.16726563 7.98804688 -22 8 C-22 7.67 -22 7.34 -22 7 C-17.37540756 5.82299952 -12.92133538 5.88591588 -8.1875 5.9375 C-7.00510742 5.94426758 -7.00510742 5.94426758 -5.79882812 5.95117188 C-3.86585239 5.96288688 -1.93291607 5.98082002 0 6 C0 4.02 0 2.04 0 0 Z " fill="#0469BB" transform="translate(599,559)"/>
<path d="M0 0 C0.81017578 -0.020625 1.62035156 -0.04125 2.45507812 -0.0625 C4.80078125 -0.078125 4.80078125 -0.078125 8.6875 0.25 C9.3475 1.24 10.0075 2.23 10.6875 3.25 C8.3775 5.23 6.0675 7.21 3.6875 9.25 C3.0275 8.92 2.3675 8.59 1.6875 8.25 C3.3375 6.6 4.9875 4.95 6.6875 3.25 C-4.6975 2.755 -4.6975 2.755 -16.3125 2.25 C-16.3125 1.92 -16.3125 1.59 -16.3125 1.25 C-10.84856785 0.34300189 -5.53529215 0.03608992 0 0 Z " fill="#065FB2" transform="translate(400.3125,378.75)"/>
<path d="M0 0 C0.33 0.66 0.66 1.32 1 2 C-5.435 2.495 -5.435 2.495 -12 3 C-12 3.33 -12 3.66 -12 4 C-15.96 4 -19.92 4 -24 4 C-17.37652103 -0.41565265 -7.80315459 -0.30600606 0 0 Z " fill="#026FC9" transform="translate(253,371)"/>
<path d="M0 0 C0.33 0 0.66 0 1 0 C1 9.24 1 18.48 1 28 C3.31 28 5.62 28 8 28 C8 28.33 8 28.66 8 29 C5.69 29 3.38 29 1 29 C0.67 29.66 0.34 30.32 0 31 C-0.93119457 28.2064163 -1.12858975 26.50073518 -1.1328125 23.61328125 C-1.13410156 22.75669922 -1.13539063 21.90011719 -1.13671875 21.01757812 C-1.13285156 20.12490234 -1.12898437 19.23222656 -1.125 18.3125 C-1.12886719 17.43916016 -1.13273438 16.56582031 -1.13671875 15.66601562 C-1.12878341 10.35330408 -0.77108092 5.25681357 0 0 Z " fill="#03469C" transform="translate(574,537)"/>
<path d="M0 0 C2.06183633 -0.08150744 4.12461349 -0.1394194 6.1875 -0.1875 C7.33605469 -0.22230469 8.48460937 -0.25710938 9.66796875 -0.29296875 C13.29157624 0.02563683 15.14639144 0.78052668 18 3 C18 3.66 18 4.32 18 5 C17.14728516 4.52626953 17.14728516 4.52626953 16.27734375 4.04296875 C11.25095379 1.74100285 5.29219473 1.46355637 0 3 C0 2.01 0 1.02 0 0 Z " fill="#0171CD" transform="translate(254,483)"/>
<path d="M0 0 C0.66 0 1.32 0 2 0 C2.87202123 2.20268339 3.72245702 4.41013866 4.5625 6.625 C5.03816406 7.85476563 5.51382813 9.08453125 6.00390625 10.3515625 C7.03032403 14.11106921 6.95852717 16.26920564 6 20 C5.67 20 5.34 20 5 20 C4.85304688 18.948125 4.85304688 18.948125 4.703125 17.875 C3.70025836 11.51198407 2.17338469 6.60631294 -1 1 C-0.67 0.67 -0.34 0.34 0 0 Z " fill="#046AC0" transform="translate(675,484)"/>
<path d="M0 0 C0.33 0 0.66 0 1 0 C1.19491452 1.45736087 1.38069358 2.91594593 1.5625 4.375 C1.66691406 5.18710937 1.77132812 5.99921875 1.87890625 6.8359375 C2 9 2 9 1 11 C1.66 11.33 2.32 11.66 3 12 C1.02 12.99 1.02 12.99 -1 14 C-1.02685938 11.85423363 -1.04633088 9.70837355 -1.0625 7.5625 C-1.07410156 6.36753906 -1.08570313 5.17257812 -1.09765625 3.94140625 C-1 1 -1 1 0 0 Z " fill="#0573CD" transform="translate(644,464)"/>
<path d="M0 0 C2.44563312 2.44563312 3.34131255 4.75525172 4.6875 7.9375 C5.14511719 8.99839844 5.60273437 10.05929687 6.07421875 11.15234375 C7 14 7 14 6 17 C4.35 17 2.7 17 1 17 C1.33 16.34 1.66 15.68 2 15 C2.99 15 3.98 15 5 15 C4.6390625 14.16855469 4.278125 13.33710937 3.90625 12.48046875 C3.21015625 10.85044922 3.21015625 10.85044922 2.5 9.1875 C2.0359375 8.10855469 1.571875 7.02960937 1.09375 5.91796875 C0 3 0 3 0 0 Z " fill="#0464B5" transform="translate(558,550)"/>
<path d="M0 0 C1 2 1 2 0.8125 3.875 C-0.23322623 6.60997629 -1.93557566 7.93557566 -4 10 C-5.06011943 11.96879323 -6.07470849 13.96435867 -7 16 C-7.66 15.67 -8.32 15.34 -9 15 C-6.8349084 9.22642241 -3.85137983 4.79864477 0 0 Z " fill="#056EC6" transform="translate(158,424)"/>
<path d="M0 0 C0.99 0.33 1.98 0.66 3 1 C1.73548068 2.31858428 0.46314525 3.62967631 -0.8125 4.9375 C-1.52019531 5.66839844 -2.22789062 6.39929688 -2.95703125 7.15234375 C-5 9 -5 9 -8 10 C-6.76044505 6.28133515 -4.81445146 4.67716114 -2 2 C-1.34 1.34 -0.68 0.68 0 0 Z " fill="#037AD9" transform="translate(309,432)"/>
<path d="M0 0 C-2.80804268 2.96404505 -5.18315774 5.44499019 -9 7 C-6.56143667 1.39130435 -6.56143667 1.39130435 -3.9375 -0.4375 C-2 -1 -2 -1 0 0 Z " fill="#027FD7" transform="translate(232,446)"/>
<path d="M0 0 C3.40667322 0.44824648 5.07914607 1.05276405 8 3 C3.71 3 -0.58 3 -5 3 C-3.68 2.34 -2.36 1.68 -1 1 C-0.67 0.67 -0.34 0.34 0 0 Z " fill="#0475CF" transform="translate(260,464)"/>
<path d="M0 0 C0.66 0.33 1.32 0.66 2 1 C1.319375 1.61875 1.319375 1.61875 0.625 2.25 C-1.05950374 4.06408095 -1.99265971 5.75285627 -3 8 C-3.99 8 -4.98 8 -6 8 C-5.67 7.01 -5.34 6.02 -5 5 C-4.34 5 -3.68 5 -3 5 C-2.5359375 4.0409375 -2.5359375 4.0409375 -2.0625 3.0625 C-1 1 -1 1 0 0 Z " fill="#0571C6" transform="translate(176,402)"/>
<path d="M0 0 C0.99 0 1.98 0 3 0 C3 1.98 3 3.96 3 6 C2.01 6.33 1.02 6.66 0 7 C0.33 5.35 0.66 3.7 1 2 C0.34 1.67 -0.32 1.34 -1 1 C-0.67 0.67 -0.34 0.34 0 0 Z " fill="#0375D2" transform="translate(252,416)"/>
<path d="M0 0 C0.66 0.33 1.32 0.66 2 1 C2 4.3 2 7.6 2 11 C1.34 11 0.68 11 0 11 C-0.19406478 9.35492782 -0.38007935 7.70890406 -0.5625 6.0625 C-0.66691406 5.14597656 -0.77132813 4.22945313 -0.87890625 3.28515625 C-0.91886719 2.53105469 -0.95882813 1.77695312 -1 1 C-0.67 0.67 -0.34 0.34 0 0 Z " fill="#1169B7" transform="translate(370,341)"/>
<path d="" fill="#0C89E0" transform="translate(0,0)"/>
<path d="M0 0 C3 1 3 1 3 1 Z " fill="#0696F3" transform="translate(520,531)"/>
<path d="" fill="#0C8DE8" transform="translate(0,0)"/>
<path d="" fill="#0D91E9" transform="translate(0,0)"/>
<path d="" fill="#0D93EC" transform="translate(0,0)"/>
<path d="M0 0 C2 1 2 1 2 1 Z " fill="#0798F3" transform="translate(244,622)"/>
<path d="" fill="#0997F4" transform="translate(0,0)"/>
<path d="M0 0 C2 1 2 1 2 1 Z " fill="#1185D5" transform="translate(646,566)"/>
<path d="M0 0 C2 1 2 1 2 1 Z " fill="#0896F7" transform="translate(521,533)"/>
<path d="M0 0 C2 1 2 1 2 1 Z " fill="#0497F6" transform="translate(235,518)"/>
<path d="" fill="#069AF5" transform="translate(0,0)"/>
<path d="" fill="#0697F5" transform="translate(0,0)"/>
<path d="" fill="#049BF9" transform="translate(0,0)"/>
<path d="M0 0 C2 1 2 1 2 1 Z " fill="#0894EE" transform="translate(412,488)"/>
<path d="M0 0 C2 1 2 1 2 1 Z " fill="#0697F7" transform="translate(730,485)"/>
<path d="" fill="#0897F6" transform="translate(0,0)"/>
<path d="" fill="#079BF7" transform="translate(0,0)"/>
<path d="M0 0 C2 1 2 1 2 1 Z " fill="#08A1F9" transform="translate(257,464)"/>
<path d="" fill="#0995F4" transform="translate(0,0)"/>
<path d="M0 0 C2 1 2 1 2 1 Z " fill="#0E3A57" transform="translate(816,432)"/>
<path d="M0 0 C2 1 2 1 2 1 Z " fill="#0E3752" transform="translate(849,424)"/>
<path d="" fill="#0B9AF6" transform="translate(0,0)"/>
<path d="M0 0 C2 1 2 1 2 1 Z " fill="#0998F6" transform="translate(244,391)"/>
<path d="" fill="#0D91ED" transform="translate(0,0)"/>
<path d="M0 0 C2 1 2 1 2 1 Z " fill="#0C97F2" transform="translate(232,371)"/>
<path d="" fill="#0A9DF8" transform="translate(0,0)"/>
<path d="" fill="#0896F0" transform="translate(0,0)"/>
<path d="" fill="#0E90E8" transform="translate(0,0)"/>
<path d="" fill="#0D91ED" transform="translate(0,0)"/>
<path d="" fill="#0A91ED" transform="translate(0,0)"/>
<path d="" fill="#0C95EF" transform="translate(0,0)"/>
<path d="" fill="#0A92EE" transform="translate(0,0)"/>
<path d="" fill="#0891EA" transform="translate(0,0)"/>
<path d="" fill="#099FFA" transform="translate(0,0)"/>
<path d="" fill="#0E91EB" transform="translate(0,0)"/>
<path d="" fill="#0E8FE7" transform="translate(0,0)"/>
<path d="" fill="#0A8FE7" transform="translate(0,0)"/>
<path d="" fill="#0B9BF5" transform="translate(0,0)"/>
<path d="" fill="#0898F4" transform="translate(0,0)"/>
<path d="" fill="#0996F5" transform="translate(0,0)"/>
<path d="" fill="#0898F7" transform="translate(0,0)"/>
<path d="" fill="#0F90EC" transform="translate(0,0)"/>
<path d="" fill="#0E83D4" transform="translate(0,0)"/>
<path d="" fill="#0789E2" transform="translate(0,0)"/>
<path d="" fill="#0E86E0" transform="translate(0,0)"/>
<path d="" fill="#0F87D7" transform="translate(0,0)"/>
<path d="" fill="#0598F0" transform="translate(0,0)"/>
<path d="" fill="#123B5B" transform="translate(0,0)"/>
<path d="" fill="#0799F6" transform="translate(0,0)"/>
<path d="" fill="#0995F4" transform="translate(0,0)"/>
<path d="" fill="#12405D" transform="translate(0,0)"/>
<path d="" fill="#1385D9" transform="translate(0,0)"/>
<path d="" fill="#1184DA" transform="translate(0,0)"/>
<path d="" fill="#113C58" transform="translate(0,0)"/>
<path d="" fill="#0A99F6" transform="translate(0,0)"/>
<path d="" fill="#128BDE" transform="translate(0,0)"/>
<path d="" fill="#0F8BE0" transform="translate(0,0)"/>
<path d="" fill="#0D92E8" transform="translate(0,0)"/>
<path d="" fill="#12334C" transform="translate(0,0)"/>
<path d="" fill="#0996F5" transform="translate(0,0)"/>
<path d="" fill="#118DE0" transform="translate(0,0)"/>
<path d="" fill="#0594F3" transform="translate(0,0)"/>
<path d="" fill="#0699F7" transform="translate(0,0)"/>
<path d="" fill="#0A9AF8" transform="translate(0,0)"/>
<path d="" fill="#0997F6" transform="translate(0,0)"/>
<path d="" fill="#0D9BF1" transform="translate(0,0)"/>
<path d="" fill="#049FF4" transform="translate(0,0)"/>
<path d="" fill="#0C8FE9" transform="translate(0,0)"/>
<path d="" fill="#0393F3" transform="translate(0,0)"/>
<path d="" fill="#0995F2" transform="translate(0,0)"/>
<path d="" fill="#0D93E8" transform="translate(0,0)"/>
<path d="" fill="#0998F4" transform="translate(0,0)"/>
<path d="" fill="#0F8EE6" transform="translate(0,0)"/>
<path d="" fill="#0A9AF7" transform="translate(0,0)"/>
<path d="" fill="#0994EE" transform="translate(0,0)"/>
<path d="" fill="#089AF5" transform="translate(0,0)"/>
<path d="" fill="#0A95F1" transform="translate(0,0)"/>
<path d="" fill="#099AF4" transform="translate(0,0)"/>
<path d="" fill="#0797F7" transform="translate(0,0)"/>
<path d="" fill="#0999F8" transform="translate(0,0)"/>
<path d="" fill="#0894EC" transform="translate(0,0)"/>
<path d="" fill="#0699F1" transform="translate(0,0)"/>
<path d="" fill="#0998F4" transform="translate(0,0)"/>
<path d="" fill="#0896F2" transform="translate(0,0)"/>
<path d="" fill="#0799F5" transform="translate(0,0)"/>
<path d="" fill="#0A8EED" transform="translate(0,0)"/>
<path d="" fill="#0F4975" transform="translate(0,0)"/>
<path d="" fill="#11517F" transform="translate(0,0)"/>
<path d="" fill="#0F4E77" transform="translate(0,0)"/>
<path d="" fill="#0996F2" transform="translate(0,0)"/>
<path d="" fill="#115177" transform="translate(0,0)"/>
<path d="" fill="#0895F1" transform="translate(0,0)"/>
<path d="" fill="#0699F1" transform="translate(0,0)"/>
<path d="" fill="#0397F8" transform="translate(0,0)"/>
<path d="" fill="#0597F7" transform="translate(0,0)"/>
<path d="" fill="#0A97F6" transform="translate(0,0)"/>
<path d="" fill="#0798F2" transform="translate(0,0)"/>
<path d="" fill="#079DFA" transform="translate(0,0)"/>
<path d="" fill="#0C99F7" transform="translate(0,0)"/>
<path d="" fill="#0B98F4" transform="translate(0,0)"/>
<path d="" fill="#0A9BF5" transform="translate(0,0)"/>
<path d="" fill="#0798F5" transform="translate(0,0)"/>
<path d="" fill="#0B98EE" transform="translate(0,0)"/>
<path d="" fill="#0694F6" transform="translate(0,0)"/>
<path d="" fill="#0295F5" transform="translate(0,0)"/>
<path d="" fill="#0998F9" transform="translate(0,0)"/>
<path d="" fill="#0993F1" transform="translate(0,0)"/>
<path d="" fill="#0D9BF4" transform="translate(0,0)"/>
<path d="" fill="#069FF8" transform="translate(0,0)"/>
<path d="" fill="#029BFA" transform="translate(0,0)"/>
<path d="" fill="#083252" transform="translate(0,0)"/>
<path d="" fill="#099FF8" transform="translate(0,0)"/>
<path d="" fill="#0798F2" transform="translate(0,0)"/>
<path d="" fill="#099DF8" transform="translate(0,0)"/>
<path d="" fill="#0998F4" transform="translate(0,0)"/>
<path d="" fill="#0999F7" transform="translate(0,0)"/>
<path d="" fill="#1688D6" transform="translate(0,0)"/>
<path d="" fill="#0899F7" transform="translate(0,0)"/>
<path d="" fill="#069AF4" transform="translate(0,0)"/>
<path d="" fill="#0697F3" transform="translate(0,0)"/>
<path d="" fill="#0698F4" transform="translate(0,0)"/>
<path d="" fill="#079BF8" transform="translate(0,0)"/>
<path d="" fill="#079BFA" transform="translate(0,0)"/>
<path d="" fill="#0697F5" transform="translate(0,0)"/>
<path d="" fill="#0897F7" transform="translate(0,0)"/>
<path d="" fill="#14364D" transform="translate(0,0)"/>
<path d="" fill="#0695F1" transform="translate(0,0)"/>
<path d="" fill="#073252" transform="translate(0,0)"/>
<path d="" fill="#053252" transform="translate(0,0)"/>
<path d="" fill="#073151" transform="translate(0,0)"/>
<path d="" fill="#0999F7" transform="translate(0,0)"/>
<path d="" fill="#069AF4" transform="translate(0,0)"/>
<path d="" fill="#099EF8" transform="translate(0,0)"/>
<path d="" fill="#07A8FD" transform="translate(0,0)"/>
<path d="" fill="#0298F6" transform="translate(0,0)"/>
<path d="" fill="#069EF7" transform="translate(0,0)"/>
<path d="" fill="#0A97EF" transform="translate(0,0)"/>
<path d="" fill="#079AF7" transform="translate(0,0)"/>
<path d="" fill="#059DF8" transform="translate(0,0)"/>
<path d="" fill="#0698F3" transform="translate(0,0)"/>
<path d="" fill="#0892F3" transform="translate(0,0)"/>
<path d="" fill="#079BFA" transform="translate(0,0)"/>
<path d="" fill="#0A96F0" transform="translate(0,0)"/>
<path d="" fill="#0A9EF6" transform="translate(0,0)"/>
<path d="" fill="#0896F4" transform="translate(0,0)"/>
<path d="" fill="#0D94E9" transform="translate(0,0)"/>
<path d="" fill="#079AF9" transform="translate(0,0)"/>
<path d="" fill="#079BFB" transform="translate(0,0)"/>
<path d="" fill="#0998F6" transform="translate(0,0)"/>
<path d="" fill="#0895EF" transform="translate(0,0)"/>
<path d="" fill="#099BF8" transform="translate(0,0)"/>
<path d="" fill="#049BF8" transform="translate(0,0)"/>
<path d="" fill="#089AF6" transform="translate(0,0)"/>
<path d="" fill="#0A9DF3" transform="translate(0,0)"/>
<path d="" fill="#0A98F6" transform="translate(0,0)"/>
<path d="" fill="#0E96F1" transform="translate(0,0)"/>
<path d="" fill="#0A314E" transform="translate(0,0)"/>
<path d="" fill="#09324F" transform="translate(0,0)"/>
<path d="" fill="#1099F3" transform="translate(0,0)"/>
<path d="" fill="#0991EB" transform="translate(0,0)"/>
<path d="" fill="#0796F4" transform="translate(0,0)"/>
<path d="" fill="#0C99F0" transform="translate(0,0)"/>
<path d="" fill="#1383D1" transform="translate(0,0)"/>
<path d="" fill="#083050" transform="translate(0,0)"/>
<path d="" fill="#0998F0" transform="translate(0,0)"/>
<path d="" fill="#0B98F5" transform="translate(0,0)"/>
<path d="" fill="#069FF9" transform="translate(0,0)"/>
<path d="" fill="#07A0FA" transform="translate(0,0)"/>
<path d="" fill="#0399F8" transform="translate(0,0)"/>
<path d="" fill="#1090E7" transform="translate(0,0)"/>
<path d="" fill="#1291E8" transform="translate(0,0)"/>
<path d="" fill="#128EE5" transform="translate(0,0)"/>
<path d="" fill="#0A9AF5" transform="translate(0,0)"/>
<path d="" fill="#093552" transform="translate(0,0)"/>
<path d="" fill="#0C95EF" transform="translate(0,0)"/>
<path d="" fill="#0994F3" transform="translate(0,0)"/>
<path d="" fill="#089FFB" transform="translate(0,0)"/>
<path d="" fill="#0998F7" transform="translate(0,0)"/>
<path d="" fill="#12486D" transform="translate(0,0)"/>
<path d="" fill="#0C93EB" transform="translate(0,0)"/>
<path d="" fill="#08A1FB" transform="translate(0,0)"/>
<path d="" fill="#0E8EE5" transform="translate(0,0)"/>
<path d="" fill="#069CFA" transform="translate(0,0)"/>
<path d="" fill="#0699F9" transform="translate(0,0)"/>
<path d="" fill="#069EF7" transform="translate(0,0)"/>
<path d="" fill="#099AF8" transform="translate(0,0)"/>
<path d="" fill="#0E8EE6" transform="translate(0,0)"/>
<path d="" fill="#0699F8" transform="translate(0,0)"/>
<path d="" fill="#0B97F3" transform="translate(0,0)"/>
<path d="" fill="#0E8AE4" transform="translate(0,0)"/>
<path d="" fill="#0D96EF" transform="translate(0,0)"/>
<path d="" fill="#0D9CFA" transform="translate(0,0)"/>
<path d="" fill="#168BDF" transform="translate(0,0)"/>
<path d="" fill="#089CF9" transform="translate(0,0)"/>
<path d="" fill="#103954" transform="translate(0,0)"/>
<path d="" fill="#148DDD" transform="translate(0,0)"/>
<path d="" fill="#158BD9" transform="translate(0,0)"/>
<path d="" fill="#089BF9" transform="translate(0,0)"/>
<path d="" fill="#0D3753" transform="translate(0,0)"/>
<path d="" fill="#0D3850" transform="translate(0,0)"/>
<path d="" fill="#0CA3F5" transform="translate(0,0)"/>
<path d="" fill="#0B9BF4" transform="translate(0,0)"/>
<path d="" fill="#0C99F7" transform="translate(0,0)"/>
<path d="" fill="#0798FA" transform="translate(0,0)"/>
<path d="" fill="#079CF6" transform="translate(0,0)"/>
<path d="" fill="#0A9AF5" transform="translate(0,0)"/>
<path d="" fill="#0596F0" transform="translate(0,0)"/>
<path d="" fill="#0F99F1" transform="translate(0,0)"/>
<path d="" fill="#0896EE" transform="translate(0,0)"/>
<path d="" fill="#1099F2" transform="translate(0,0)"/>
<path d="" fill="#0B91E8" transform="translate(0,0)"/>
<path d="" fill="#089AF6" transform="translate(0,0)"/>
<path d="" fill="#089CFA" transform="translate(0,0)"/>
<path d="" fill="#0A90EC" transform="translate(0,0)"/>
<path d="" fill="#06A0FB" transform="translate(0,0)"/>
<path d="" fill="#0999F3" transform="translate(0,0)"/>
<path d="" fill="#0D91EB" transform="translate(0,0)"/>
<path d="" fill="#079AFB" transform="translate(0,0)"/>
<path d="" fill="#0C93E8" transform="translate(0,0)"/>
<path d="" fill="#0F96EF" transform="translate(0,0)"/>
<path d="" fill="#0D97F5" transform="translate(0,0)"/>
<path d="" fill="#1186D9" transform="translate(0,0)"/>
<path d="" fill="#0B99ED" transform="translate(0,0)"/>
<path d="" fill="#0694F1" transform="translate(0,0)"/>
<path d="" fill="#0D93EB" transform="translate(0,0)"/>
<path d="" fill="#1094ED" transform="translate(0,0)"/>
<path d="" fill="#0D9BF1" transform="translate(0,0)"/>
<path d="" fill="#0C90E5" transform="translate(0,0)"/>
<path d="" fill="#0E90E9" transform="translate(0,0)"/>
<path d="" fill="#1092E6" transform="translate(0,0)"/>
<path d="" fill="#0F94EA" transform="translate(0,0)"/>
<path d="" fill="#0F91E6" transform="translate(0,0)"/>
<path d="" fill="#1585D7" transform="translate(0,0)"/>
<path d="" fill="#188BD6" transform="translate(0,0)"/>
</svg>
