<?xml version="1.0" encoding="UTF-8"?>
<svg version="1.1" xmlns="http://www.w3.org/2000/svg" width="1024" height="1024">
<path d="M0 0 C337.92 0 675.84 0 1024 0 C1024 337.92 1024 675.84 1024 1024 C686.08 1024 348.16 1024 0 1024 C0 686.08 0 348.16 0 0 Z " fill="#081016" transform="translate(0,0)"/>
<path d="M0 0 C3.5 0.5 3.5 0.5 5.375 1.75 C7.92026153 5.70929572 7.68466451 10.07973428 7.81640625 14.671875 C7.83718735 15.3542926 7.85796844 16.03671021 7.87937927 16.73980713 C7.94452052 18.90977356 8.00359404 21.07985624 8.0625 23.25 C8.10571897 24.72527221 8.14933432 26.20053287 8.19335938 27.67578125 C8.30016518 31.28373166 8.40153153 34.89181133 8.5 38.5 C9.68851563 38.63535156 10.87703125 38.77070313 12.1015625 38.91015625 C25.62176979 40.6096583 41.95027516 42.80018344 53.5 50.5 C53.84057617 52.47119141 53.84057617 52.47119141 53.79296875 54.8515625 C53.78330078 55.70234375 53.77363281 56.553125 53.76367188 57.4296875 C53.73853516 58.31914062 53.71339844 59.20859375 53.6875 60.125 C53.67396484 61.0221875 53.66042969 61.919375 53.64648438 62.84375 C53.61106925 65.06309789 53.56168461 67.28125188 53.5 69.5 C52.30246094 68.96890625 51.10492188 68.4378125 49.87109375 67.890625 C35.77580603 61.73566814 22.78688611 58.04781435 7.5 55.5 C7.5 66.39 7.5 77.28 7.5 88.5 C10.8 88.5 14.1 88.5 17.5 88.5 C20.92578125 89.26953125 20.92578125 89.26953125 23.8125 90.3125 C24.77800781 90.64894531 25.74351562 90.98539062 26.73828125 91.33203125 C29.5067389 92.50284997 31.96614453 93.88922484 34.5 95.5 C33.58552154 96.58518111 32.66829593 97.66804738 31.75 98.75 C31.23953125 99.35328125 30.7290625 99.9565625 30.203125 100.578125 C29.64109375 101.21234375 29.0790625 101.8465625 28.5 102.5 C27.89929688 103.263125 27.29859375 104.02625 26.6796875 104.8125 C24.5 106.5 24.5 106.5 21.6796875 106.234375 C20.58914063 105.90953125 19.49859375 105.5846875 18.375 105.25 C1.3649225 101.03291829 -14.59571389 103.26210599 -30.1015625 111.42578125 C-43.61216731 119.67190901 -52.78586696 132.9261121 -57.25 148.0390625 C-60.93730957 164.990444 -58.94701799 183.71649857 -49.5 198.5 C-40.24379782 211.47311767 -28.49655568 220.85319358 -12.5 223.875 C5.5032826 226.19647591 22.64936416 223.86864136 37.3125 212.6875 C49.26196866 203.16425733 58.42463275 189.99981487 60.5 174.5 C61.35943295 162.50210577 60.7466292 151.40024212 56.59375 140.015625 C56.5 137.5 56.5 137.5 58.58984375 134.82421875 C59.52957031 133.95410156 60.46929687 133.08398438 61.4375 132.1875 C62.84322266 130.86298828 62.84322266 130.86298828 64.27734375 129.51171875 C65.37755859 128.51591797 65.37755859 128.51591797 66.5 127.5 C73.0315506 132.7937932 75.11365963 145.5600506 76.5 153.5 C76.5 155.15 76.5 156.8 76.5 158.5 C87.06 158.5 97.62 158.5 108.5 158.5 C106.37309514 141.72108387 102.86322008 126.7118447 95.3828125 111.46875 C94.5 109.5 94.5 109.5 94.5 107.5 C100.11 107.5 105.72 107.5 111.5 107.5 C120.11732976 123.53780817 123.17701785 140.51904464 124.5 158.5 C125.29172607 158.48952637 126.08345215 158.47905273 126.89916992 158.46826172 C130.49524751 158.42662154 134.09127428 158.40064807 137.6875 158.375 C138.93337891 158.35824219 140.17925781 158.34148437 141.46289062 158.32421875 C142.66494141 158.31777344 143.86699219 158.31132812 145.10546875 158.3046875 C146.76292114 158.28897705 146.76292114 158.28897705 148.45385742 158.27294922 C152.32423184 158.56143589 155.1604591 159.60697273 158.375 161.75 C159.5 163.5 159.5 163.5 159.4375 166.5 C158.3343493 170.03008225 157.67294729 170.71251181 154.5 172.5 C151.38378906 172.84057617 151.38378906 172.84057617 147.765625 172.79296875 C146.47011719 172.78330078 145.17460937 172.77363281 143.83984375 172.76367188 C142.47655646 172.73860783 141.11327521 172.71321302 139.75 172.6875 C138.37110816 172.67244518 136.99220065 172.65875817 135.61328125 172.64648438 C132.24179085 172.61111909 128.87109346 172.56175904 125.5 172.5 C125.36940186 173.35505127 125.23880371 174.21010254 125.10424805 175.09106445 C124.57262286 178.56119828 124.03690064 182.03067885 123.5 185.5 C123.30019531 186.79292969 123.10039062 188.08585938 122.89453125 189.41796875 C117.159703 221.6330778 98.17906844 250.80720443 71.5 269.5 C51.99367527 282.7574393 31.7123207 288.64249123 8.5 291.5 C8.48541748 292.3470752 8.47083496 293.19415039 8.45581055 294.06689453 C8.39448823 297.23181934 8.32028648 300.39611504 8.23754883 303.56054688 C8.20444614 304.9259925 8.17636914 306.29157013 8.15356445 307.65722656 C8.11975009 309.62853224 8.06591714 311.59946191 8.01171875 313.5703125 C7.98553467 314.75383301 7.95935059 315.93735352 7.93237305 317.15673828 C7.4588711 320.81802325 6.32233846 323.31355953 4.5 326.5 C-1.45703125 326.98828125 -1.45703125 326.98828125 -3.5 326.5 C-6.64925025 322.4373143 -6.85536259 319.28437009 -6.79296875 314.23046875 C-6.78872391 313.54946609 -6.78447906 312.86846344 -6.78010559 312.16682434 C-6.7634061 310.00663541 -6.72577312 307.84740358 -6.6875 305.6875 C-6.67244174 304.21681042 -6.65875534 302.74610611 -6.64648438 301.27539062 C-6.61353214 297.68328643 -6.56181173 294.09173674 -6.5 290.5 C-7.66789063 290.52320313 -8.83578125 290.54640625 -10.0390625 290.5703125 C-38.82321792 290.53238871 -66.22576263 274.65542494 -86.5 255.5 C-87.18835938 254.86449219 -87.87671875 254.22898437 -88.5859375 253.57421875 C-109.00521758 234.08308777 -120.56046853 206.27083677 -123.5 178.5 C-123.52724432 176.83355602 -123.53662119 175.16626428 -123.5 173.5 C-124.79035156 173.53480469 -126.08070313 173.56960938 -127.41015625 173.60546875 C-129.12759106 173.63362342 -130.84504007 173.66092177 -132.5625 173.6875 C-133.41005859 173.71263672 -134.25761719 173.73777344 -135.13085938 173.76367188 C-140.71231648 173.82832196 -144.59395128 173.23692445 -149.5 170.5 C-151.5 167.5 -151.5 167.5 -151.3125 165 C-150.43014153 162.28505087 -149.77673937 161.1864736 -147.5 159.5 C-144.5965698 158.58810497 -141.98636541 158.38184888 -138.953125 158.40234375 C-138.10878906 158.40556641 -137.26445312 158.40878906 -136.39453125 158.41210938 C-135.52183594 158.42048828 -134.64914063 158.42886719 -133.75 158.4375 C-132.86183594 158.44201172 -131.97367188 158.44652344 -131.05859375 158.45117188 C-128.87232671 158.462926 -126.68619821 158.47935751 -124.5 158.5 C-124.40203125 157.30246094 -124.3040625 156.10492188 -124.203125 154.87109375 C-121.11951967 120.08170031 -105.68075606 89.70666905 -79.5 66.5 C-65.73840475 54.99676119 -48.76868559 46.97168069 -31.5 42.5 C-30.35789062 42.18289063 -29.21578125 41.86578125 -28.0390625 41.5390625 C-20.72006525 39.64412022 -14.03714924 39.36917859 -6.5 39.5 C-6.52356567 37.99433472 -6.52356567 37.99433472 -6.54760742 36.45825195 C-6.60205114 32.72168045 -6.63640226 28.98514379 -6.66479492 25.24829102 C-6.67984876 23.63332211 -6.70029648 22.01839387 -6.72631836 20.40356445 C-6.76285286 18.07753445 -6.77976015 15.75204659 -6.79296875 13.42578125 C-6.80845261 12.70787918 -6.82393646 11.98997711 -6.83988953 11.25032043 C-6.84182324 5.44450135 -6.29846955 0.89978136 0 0 Z " fill="#0088E4" transform="translate(260.5,331.5)"/>
<path d="M0 0 C3.31779785 2.77769123 6.00649709 5.8654715 8.6875 9.25 C9.28175781 8.64671875 9.87601563 8.0434375 10.48828125 7.421875 C16.46130835 1.66250206 21.67871141 -1.60067654 29.6875 -3.75 C30.3371875 -3.94078125 30.986875 -4.1315625 31.65625 -4.328125 C41.14757583 -6.29940037 50.50841361 -4.53873883 58.9375 0 C66.01503323 5.79070901 68.98404113 11.54347606 71.6875 20.25 C72.0175 21.24 72.3475 22.23 72.6875 23.25 C72.77815412 25.66839804 72.81361542 28.05726283 72.80102539 30.4753418 C72.80117142 31.20729767 72.80131744 31.93925354 72.8014679 32.69338989 C72.8007714 35.11202969 72.79299128 37.53059241 72.78515625 39.94921875 C72.78329114 41.62644916 72.78186767 43.30368011 72.78086853 44.98091125 C72.7770507 49.39500432 72.76722666 53.80906447 72.75616455 58.22314453 C72.74593467 62.72753453 72.74136753 67.23192985 72.73632812 71.73632812 C72.72560375 80.57423554 72.70801287 89.41210988 72.6875 98.25 C63.7775 98.25 54.8675 98.25 45.6875 98.25 C45.6781543 96.20167969 45.66880859 94.15335938 45.65917969 92.04296875 C45.62531855 85.25348129 45.56971924 78.46429486 45.50359726 71.67504883 C45.46419214 67.56118237 45.43196981 63.44752772 45.41650391 59.33349609 C45.40129099 55.35857526 45.36676457 51.384237 45.31919098 47.40957642 C45.30442466 45.89788901 45.29646172 44.38611841 45.29561615 42.87435913 C45.33046031 31.45719932 45.33046031 31.45719932 40.6875 21.25 C36.01737808 18.2281564 32.17921272 17.8242415 26.828125 18.6796875 C22.17131872 19.92036947 19.43426445 22.3372879 16.4375 26 C12.07968238 34.09308986 12.35374363 42.3857548 12.2734375 51.375 C12.25469639 52.73121276 12.23512086 54.08741422 12.2147522 55.44360352 C12.16373522 58.98786717 12.12394819 62.53216851 12.08660889 66.07659912 C12.04637673 69.70350226 11.99537273 73.33025281 11.9453125 76.95703125 C11.84891438 84.05458113 11.7653932 91.15221938 11.6875 98.25 C3.1075 98.25 -5.4725 98.25 -14.3125 98.25 C-14.32708252 96.39914795 -14.34166504 94.5482959 -14.35668945 92.64135742 C-14.40859544 86.4865413 -14.47394778 80.33197929 -14.54821491 74.17739391 C-14.59270666 70.45039776 -14.63200752 66.7235056 -14.65893555 62.99633789 C-14.68518257 59.39104455 -14.72573057 55.78615607 -14.77568626 52.1811161 C-14.7922119 50.81425371 -14.80381432 49.44732153 -14.81011391 48.08037376 C-14.8527747 39.66467815 -15.61151089 32.23995241 -18.3125 24.25 C-18.8075 22.765 -18.8075 22.765 -19.3125 21.25 C-22.80437464 18.73585026 -27.09450109 18.20544367 -31.3125 18.25 C-36.21116893 19.08277372 -39.50319199 20.5110666 -43.1875 23.875 C-48.57671767 32.4343457 -48.77573845 40.75454868 -48.82421875 50.69140625 C-48.84109612 52.06861438 -48.85925039 53.4458074 -48.87861633 54.82298279 C-48.92579146 58.41821567 -48.95580939 62.01338725 -48.98205566 65.60882568 C-49.01202685 69.28947044 -49.0584995 72.96990457 -49.10351562 76.65039062 C-49.18917836 83.85017305 -49.25515792 91.04992612 -49.3125 98.25 C-57.8925 98.25 -66.4725 98.25 -75.3125 98.25 C-75.3125 64.92 -75.3125 31.59 -75.3125 -2.75 C-66.7325 -2.75 -58.1525 -2.75 -49.3125 -2.75 C-49.3125 0.22 -49.3125 3.19 -49.3125 6.25 C-48.6525 6.25 -47.9925 6.25 -47.3125 6.25 C-46.9825 5.26 -46.6525 4.27 -46.3125 3.25 C-32.94291154 -6.73912304 -14.61677476 -7.72206969 0 0 Z " fill="#009ADF" transform="translate(696.3125,466.75)"/>
<path d="M0 0 C9.57 0 19.14 0 29 0 C34.80021739 13.92052174 34.80021739 13.92052174 37.375 21 C37.66971191 21.8048584 37.96442383 22.6097168 38.26806641 23.43896484 C40.65280683 29.98022045 42.95630019 36.54887596 45.24487305 43.12426758 C49.07467252 54.11462835 53.0370591 65.05708289 57 76 C57.22921143 76.63307068 57.45842285 77.26614136 57.69458008 77.918396 C59.43986497 82.73811989 61.18795916 87.55681952 62.9375 92.375 C63.18909882 93.06832428 63.44069763 93.76164856 63.69992065 94.47598267 C66.43012668 101.99634277 69.18012947 109.50836017 71.98828125 117 C72.22397324 117.63016022 72.45966522 118.26032043 72.70249939 118.90957642 C73.81368658 121.88007683 74.92963837 124.84858901 76.05444336 127.81396484 C76.4438208 128.85246582 76.83319824 129.8909668 77.234375 130.9609375 C77.57694336 131.86634277 77.91951172 132.77174805 78.27246094 133.70458984 C79 136 79 136 79 139 C69.76 139 60.52 139 51 139 C48.47409128 132.68522819 46.004893 126.40803777 43.75 120 C43.3478125 118.87658203 43.3478125 118.87658203 42.9375 117.73046875 C41 112.24418048 41 112.24418048 41 110 C23.84 110.33 6.68 110.66 -11 111 C-13.92014777 119.83961788 -13.92014777 119.83961788 -16.83374023 128.68139648 C-17.19669189 129.77524658 -17.55964355 130.86909668 -17.93359375 131.99609375 C-18.30540771 133.12200928 -18.67722168 134.2479248 -19.06030273 135.40795898 C-20 138 -20 138 -21 139 C-23.07262076 139.08767112 -25.14820294 139.10695873 -27.22265625 139.09765625 C-28.48271484 139.09443359 -29.74277344 139.09121094 -31.04101562 139.08789062 C-32.38151109 139.07953403 -33.72200588 139.07106907 -35.0625 139.0625 C-36.40689942 139.0574866 -37.7513006 139.05292342 -39.09570312 139.04882812 C-42.39717941 139.03699488 -45.69856803 139.02050971 -49 139 C-47.65226888 133.27214276 -45.98058544 127.78785876 -44 122.25 C-43.69658691 121.39277344 -43.39317383 120.53554688 -43.08056641 119.65234375 C-42.05766999 116.76680653 -41.02897296 113.88337547 -40 111 C-39.25770107 108.91149793 -38.51551726 106.82295495 -37.7734375 104.734375 C-34.13791327 94.51874029 -30.47902624 84.31185397 -26.78515625 74.1171875 C-25.94954915 71.81037674 -25.11396958 69.50355601 -24.27844238 67.19671631 C-23.71809358 65.64967697 -23.1576282 64.10267984 -22.5970459 62.5557251 C-18.64617125 51.64684752 -14.80543201 40.70716274 -11.04858398 29.72973633 C-8.33353344 21.84443471 -5.39887449 14.06322495 -2.3125 6.31640625 C-1.48741728 4.23159902 -0.70902628 2.12707885 0 0 Z " fill="#008CE0" transform="translate(483,426)"/>
<path d="M0 0 C1.20333984 -0.01611328 2.40667969 -0.03222656 3.64648438 -0.04882812 C19.95099262 -0.05763661 32.98973387 4.49024163 44.94140625 15.734375 C55.3125 27.0110173 55.3125 27.0110173 55.3125 33.3125 C54.22710938 33.91578125 53.14171875 34.5190625 52.0234375 35.140625 C50.57805301 35.94778777 49.13274454 36.75508668 47.6875 37.5625 C46.97464844 37.95824219 46.26179687 38.35398437 45.52734375 38.76171875 C42.22924176 40.60744555 39.04719226 42.46527526 35.9765625 44.671875 C35.09742188 45.21328125 34.21828125 45.7546875 33.3125 46.3125 C29.56391069 45.06297023 29.45285318 44.10464563 27.6875 40.6875 C23.23036898 32.99482201 17.06776611 28.19122473 8.484375 25.80859375 C-1.60260778 23.50455272 -11.59237327 24.13872375 -20.58984375 29.70703125 C-29.78292912 36.74307983 -34.70209479 46.02408592 -36.6875 57.3125 C-38.23406058 74.50357063 -37.79247172 89.47956784 -26.6875 103.3125 C-26.6875 103.9725 -26.6875 104.6325 -26.6875 105.3125 C-26.0275 105.3125 -25.3675 105.3125 -24.6875 105.3125 C-24.1925 105.869375 -23.6975 106.42625 -23.1875 107 C-14.5173067 115.01992881 -3.28368044 116.75639197 8.09375 116.5703125 C14.95885195 116.02043783 21.38009903 113.81109545 27.3125 110.3125 C28.54310421 107.85129159 28.5182723 106.05473134 28.62890625 103.3046875 C28.66701416 102.4163623 28.70512207 101.52803711 28.74438477 100.61279297 C28.78748779 99.48244629 28.83059082 98.35209961 28.875 97.1875 C29.019375 93.59875 29.16375 90.01 29.3125 86.3125 C20.7325 86.3125 12.1525 86.3125 3.3125 86.3125 C3.3125 79.0525 3.3125 71.7925 3.3125 64.3125 C20.4725 64.3125 37.6325 64.3125 55.3125 64.3125 C55.4775 72.706875 55.6425 81.10125 55.8125 89.75 C55.88533203 92.38282959 55.95816406 95.01565918 56.03320312 97.72827148 C56.05658958 99.83834583 56.07697025 101.94845653 56.09375 104.05859375 C56.13467773 105.13532349 56.17560547 106.21205322 56.21777344 107.32141113 C56.22327511 113.32304974 55.55061667 116.74663141 51.55273438 121.34790039 C39.33037237 133.57324125 24.40982799 139.38712916 7.3125 140.3125 C6.2615918 140.37026611 6.2615918 140.37026611 5.18945312 140.42919922 C-14.65187081 141.3380657 -31.53819853 136.83403494 -46.70703125 123.54296875 C-60.1799455 110.89440107 -66.14942336 93.96422487 -67.01171875 75.796875 C-67.62338185 54.11982359 -62.82298787 34.67148924 -47.78125 18.296875 C-40.38192977 10.81129326 -30.6684876 5.47560445 -20.6875 2.3125 C-19.72070312 1.95671875 -18.75390625 1.6009375 -17.7578125 1.234375 C-11.9915844 -0.38072607 -5.93623794 -0.01564638 0 0 Z " fill="#DAE0E6" transform="translate(848.6875,426.6875)"/>
<path d="M0 0 C0 13.2 0 26.4 0 40 C12.21 40 24.42 40 37 40 C37 44 37 44 34.82861328 46.60961914 C33.83585488 47.59498527 32.83230953 48.5695592 31.8203125 49.53515625 C31.0283699 50.31505165 31.0283699 50.31505165 30.22042847 51.11070251 C28.53113271 52.77099608 26.82879493 54.4171003 25.125 56.0625 C23.43098479 57.71396047 21.73981098 59.36823278 20.05099487 61.02500916 C18.99951017 62.05486063 17.94455438 63.08118284 16.88577271 64.10353088 C14.61460159 66.31330033 12.76714087 68.3492887 11 71 C10.34 71 9.68 71 9 71 C8.75121094 71.57621094 8.50242187 72.15242188 8.24609375 72.74609375 C6.82221852 75.32156712 5.17571857 77.02011557 3.0625 79.0625 C2.37285156 79.73410156 1.68320312 80.40570313 0.97265625 81.09765625 C-0.00380859 82.03931641 -0.00380859 82.03931641 -1 83 C-1.39791748 83.52730713 -1.79583496 84.05461426 -2.20581055 84.59790039 C-4.9363258 86.73170759 -7.26014982 86.35188471 -10.6796875 86.3359375 C-12.01432776 86.34845214 -13.3489632 86.36148937 -14.68359375 86.375 C-16.77930851 86.37892548 -18.87454578 86.37500318 -20.97021484 86.36035156 C-22.99908835 86.35174857 -25.02598763 86.37351413 -27.0546875 86.3984375 C-28.26624512 86.39505371 -29.47780273 86.39166992 -30.72607422 86.38818359 C-34.95865397 87.17914891 -36.07665759 88.89085055 -39 92 C-55.66666667 108.66666667 -72.33333333 125.33333333 -89 142 C-88.71741333 142.60509399 -88.43482666 143.21018799 -88.14367676 143.83361816 C-87.77722046 144.63424683 -87.41076416 145.43487549 -87.03320312 146.25976562 C-86.66811646 147.05048462 -86.30302979 147.84120361 -85.92687988 148.65588379 C-83.2620513 155.39534161 -83.91832287 164.31515392 -86.5625 171 C-90.4259514 178.22356582 -96.99401942 184.13478864 -104.88671875 186.5859375 C-112.96668427 188.16907307 -120.37444581 186.77894383 -128 184 C-128 183.34 -128 182.68 -128 182 C-128.556875 181.814375 -129.11375 181.62875 -129.6875 181.4375 C-134.60698851 178.37943957 -137.68535292 172.7695476 -139.484375 167.3515625 C-141.48735196 158.21677363 -140.33659644 150.78880236 -135.77734375 142.66796875 C-132.00343931 137.00296494 -127.58920856 132.19640285 -121 130 C-115.58996209 129.41665678 -111.10537287 129.93900028 -105.9375 131.5625 C-103.47826341 132.24739041 -103.47826341 132.24739041 -101 132 C-97.38318413 129.50048075 -94.7982777 126.35897156 -92 123 C-90.35266801 121.3142204 -88.68171726 119.65147892 -87 118 C-83.87099654 114.89985574 -80.7480552 111.79363463 -77.625 108.6875 C-76.3875 107.46256836 -76.3875 107.46256836 -75.125 106.21289062 C-69.38893185 100.49958465 -63.89874033 94.66605395 -58.875 88.3125 C-56.74385758 85.68409101 -54.42197978 83.36143028 -52 81 C-51.29875 80.236875 -50.5975 79.47375 -49.875 78.6875 C-48 77 -48 77 -45 77 C-45.07069702 75.47246094 -45.07069702 75.47246094 -45.14282227 73.9140625 C-45.30675498 70.10539032 -45.40939802 66.29702302 -45.49438477 62.48583984 C-45.53941711 60.84240149 -45.60066957 59.19931918 -45.67895508 57.55712891 C-46.31231346 43.92129552 -46.31231346 43.92129552 -43.13232422 39.265625 C-40.85570863 37.25665217 -38.53176286 35.66772239 -36 34 C-34.29655336 32.3709435 -32.63404658 30.69866045 -31 29 C-29.93561084 27.92182924 -28.86949963 26.84535678 -27.80200195 25.77026367 C-27.22823318 25.19003952 -26.65446442 24.60981537 -26.06330872 24.01200867 C-23.49335166 21.41527876 -20.91806271 18.82386379 -18.3425293 16.23266602 C-16.98203391 14.86202623 -15.62332623 13.4896098 -14.26635742 12.11547852 C-12.30330991 10.1283039 -10.3339891 8.14754294 -8.36328125 6.16796875 C-7.75494949 5.54931442 -7.14661774 4.9306601 -6.51985168 4.29325867 C-2.22774198 0 -2.22774198 0 0 0 Z " fill="#0095E4" transform="translate(374,338)"/>
<path d="M0 0 C0 10.89 0 21.78 0 33 C-5.28 34.32 -10.56 35.64 -16 37 C-19.23393887 38.23400299 -21.99494453 39.39301847 -25 41 C-25.91910156 41.46921875 -26.83820313 41.9384375 -27.78515625 42.421875 C-45.26769331 51.89628218 -57.87867979 66.96113667 -64 86 C-65.57529107 91.62276308 -66.7821333 97.28539472 -68 103 C-78.89 103 -89.78 103 -101 103 C-101 73.56733923 -87.32764154 48.39654245 -66.921875 27.9140625 C-60.59306112 21.98372949 -53.42116684 17.41690464 -46 13 C-45.07832031 12.44183594 -44.15664062 11.88367188 -43.20703125 11.30859375 C-30.6676964 4.37848517 -14.36415585 0 0 0 Z " fill="#080F15" transform="translate(254,387)"/>
<path d="M0 0 C11.22 0 22.44 0 34 0 C34.99 4.95 35.98 9.9 37 15 C38.14882808 17.98542462 39.18191748 20.50125886 40.6875 23.25 C41.03417725 23.90983887 41.38085449 24.56967773 41.73803711 25.24951172 C46.57280517 34.22104387 52.08611277 41.56996663 60 48 C60 48.66 60 49.32 60 50 C60.78310547 50.37705078 60.78310547 50.37705078 61.58203125 50.76171875 C63.4398703 51.71314844 65.26520489 52.72825643 67.07421875 53.76953125 C77.90583662 59.95060109 88.7695566 63.55391132 101 66 C101 77.55 101 89.1 101 101 C93.83667464 100.3487886 87.79920944 99.724995 81.0625 97.75 C80.28890137 97.52747559 79.51530273 97.30495117 78.71826172 97.07568359 C51.56250679 89.05945388 27.95037188 71.72685022 13.85839844 46.99658203 C5.86489527 32.27888526 0 16.9417179 0 0 Z " fill="#080F15" transform="translate(153,505)"/>
<path d="M0 0 C10.56 0 21.12 0 32 0 C31.32481275 6.75187255 30.5612224 12.73695978 28.8125 19.1875 C28.59255371 20.00412109 28.37260742 20.82074219 28.14599609 21.66210938 C23.50744931 38.3439749 16.04119649 51.6595028 5 65 C4.36707031 65.83015625 3.73414063 66.6603125 3.08203125 67.515625 C-10.95866477 84.26962625 -33.56216477 94.59488617 -54.4375 99.3125 C-55.19498535 99.48410645 -55.9524707 99.65571289 -56.73291016 99.83251953 C-61.06705937 100.75474032 -64.4201744 101 -69 101 C-69 89.45 -69 77.9 -69 66 C-63.72 65.01 -58.44 64.02 -53 63 C-43.06986564 59.90854308 -35.60335809 55.49440664 -27.50390625 49.17089844 C-26.23952745 48.18648923 -24.95049506 47.23386139 -23.65625 46.2890625 C-9.89239519 35.52922362 -3.27462826 16.37314132 0 0 Z " fill="#080F15" transform="translate(337,505)"/>
<path d="M0 0 C8.91 0 17.82 0 27 0 C27 33.33 27 66.66 27 101 C18.09 101 9.18 101 0 101 C0 67.67 0 34.34 0 0 Z " fill="#0092DF" transform="translate(574,464)"/>
<path d="M0 0 C2.34117834 3.51176751 3.18466675 6.97378905 4.23046875 11 C6.86538023 20.80670152 10.03693481 30.39193926 13.3125 40 C14.13703008 42.42562723 14.96010441 44.8517153 15.77958679 47.27905273 C16.28285614 48.76919443 16.78908007 50.25834248 17.29866028 51.74633789 C19 56.77570101 19 56.77570101 19 59 C6.46 59 -6.08 59 -19 59 C-15.62617622 45.50470488 -15.62617622 45.50470488 -13.4765625 39.35546875 C-13.24850922 38.69774979 -13.02045593 38.04003082 -12.78549194 37.36238098 C-12.07018154 35.30235722 -11.34794075 33.2448567 -10.625 31.1875 C-9.91366665 29.1487504 -9.20384139 27.109481 -8.49432373 25.07009888 C-8.02716605 23.72734903 -7.55944069 22.38479653 -7.09112549 21.04244995 C-4.65722575 14.05158175 -2.3220323 7.02873483 0 0 Z " fill="#071017" transform="translate(498,455)"/>
<path d="M0 0 C3.48280592 1.9506413 5.39781956 3.42498122 6.75 7.3125 C7.28335803 11.92985669 7.31692074 15.91011711 5.5625 20.25 C2.6866814 23.52248324 -0.01533779 25.1108906 -4.3359375 25.81640625 C-14.30864201 25.99406726 -14.30864201 25.99406726 -18.5 22.4375 C-21.44803132 19.41649761 -22.42616697 17.28164845 -22.5625 13.0625 C-22.48741009 8.38439875 -21.45875482 5.85035788 -18.25 2.3125 C-12.44284067 -2.30160432 -6.86367782 -3.07422498 0 0 Z " fill="#00B0E4" transform="translate(595.25,427.6875)"/>
<path d="M0 0 C3.65846829 1.66294013 6.52940859 3.82352532 9 7 C10.28322064 11.94956533 10.21069438 15.37763902 8 20 C4.46009956 23.98238799 2.65808132 25.85948463 -2.6875 26.3125 C-7.24108716 26.22970751 -10.58983876 25.05924755 -14 22 C-16.24575644 18.2804659 -16.98508026 15.83550546 -17.0625 11.5 C-15.69987893 7.01136589 -13.39278429 4.18579745 -10 1 C-6.80693439 -0.5965328 -3.47429964 -0.37487626 0 0 Z " fill="#080F15" transform="translate(265,484)"/>
<path d="M0 0 C1.03253906 0.01353516 1.03253906 0.01353516 2.0859375 0.02734375 C3.76577838 0.05067487 5.44543746 0.08653674 7.125 0.125 C7.125 0.455 7.125 0.785 7.125 1.125 C5.45824219 1.25455078 5.45824219 1.25455078 3.7578125 1.38671875 C-4.7693901 2.15268107 -12.74942367 2.87047216 -19.875 8.125 C-20.865 9.61 -20.865 9.61 -21.875 11.125 C-24.5 11.8125 -24.5 11.8125 -26.875 12.125 C-27.37 7.175 -27.37 7.175 -27.875 2.125 C-35.135 2.125 -42.395 2.125 -49.875 2.125 C-49.875 34.795 -49.875 67.465 -49.875 101.125 C-42.285 101.125 -34.695 101.125 -26.875 101.125 C-26.88547363 99.21243408 -26.89594727 97.29986816 -26.90673828 95.3293457 C-26.93901705 89.00303369 -26.96198257 82.6767412 -26.97862434 76.35036945 C-26.98905181 72.51551517 -27.003192 68.68075017 -27.02587891 64.84594727 C-27.04764438 61.14363416 -27.05957643 57.44140681 -27.06475449 53.73903465 C-27.0684436 52.32807249 -27.07564754 50.9171149 -27.08646011 49.50618935 C-27.10102342 47.5267153 -27.10181734 45.54715456 -27.10205078 43.56762695 C-27.106492 42.44177689 -27.11093323 41.31592682 -27.11550903 40.15596008 C-26.8721171 37.08866886 -26.17689891 34.89482489 -24.875 32.125 C-23.74124976 35.52625072 -24.14550168 36.69683191 -24.875 40.125 C-24.98660731 42.20948097 -25.05056507 44.29677864 -25.08032227 46.3840332 C-25.10026749 47.62494217 -25.12021271 48.86585114 -25.14076233 50.1443634 C-25.15774257 51.48816811 -25.17462152 52.83197409 -25.19140625 54.17578125 C-25.21199526 55.55869643 -25.23299223 56.9416056 -25.25437927 58.32450867 C-25.30939899 61.95267849 -25.3588963 65.58090321 -25.40722656 69.20916748 C-25.45758898 72.916187 -25.51319787 76.62312746 -25.56835938 80.33007812 C-25.67569487 87.59498681 -25.7767085 94.8599623 -25.875 102.125 C-34.455 102.125 -43.035 102.125 -51.875 102.125 C-51.875 68.795 -51.875 35.465 -51.875 1.125 C-43.295 1.125 -34.715 1.125 -25.875 1.125 C-25.875 4.095 -25.875 7.065 -25.875 10.125 C-25.215 10.125 -24.555 10.125 -23.875 10.125 C-23.545 9.135 -23.215 8.145 -22.875 7.125 C-21.01953125 5.80859375 -21.01953125 5.80859375 -18.6875 4.5625 C-17.93082031 4.14871094 -17.17414062 3.73492187 -16.39453125 3.30859375 C-10.83684717 0.69777472 -6.11448265 -0.15404704 0 0 Z " fill="#009DDE" transform="translate(672.875,462.875)"/>
<path d="M0 0 C0.99 0.99 1.98 1.98 3 3 C3 2.34 3 1.68 3 1 C6.94476647 0.19311595 8.99998285 -0.00000429 13 1 C13 12.88 13 24.76 13 37 C11.515 36.505 11.515 36.505 10 36 C10.66 36 11.32 36 12 36 C12 25.11 12 14.22 12 3 C-19.73373953 8.95007616 -45.80996806 19.24919959 -67 45 C-67 42 -67 42 -66 39 C-65.34 39 -64.68 39 -64 39 C-64 38.01 -64 37.02 -64 36 C-62.33720673 34.9935725 -60.67016516 33.99414593 -59 33 C-57.67206394 30.93299345 -57.67206394 30.93299345 -57 29 C-56.01 29 -55.02 29 -54 29 C-54 28.34 -54 27.68 -54 27 C-52.36935236 25.94228261 -50.69719127 24.94726954 -49 24 C-45.9890638 21.9927092 -45.36983503 21.16115776 -44 18 C-44 18.66 -44 19.32 -44 20 C-43.34 20 -42.68 20 -42 20 C-41.67 19.01 -41.34 18.02 -41 17 C-39.15234375 16.26953125 -39.15234375 16.26953125 -36.9375 15.8125 C-36.20402344 15.65394531 -35.47054687 15.49539063 -34.71484375 15.33203125 C-34.14894531 15.22246094 -33.58304688 15.11289062 -33 15 C-33 14.01 -33 13.02 -33 12 C-31.68 12 -30.36 12 -29 12 C-29 11.34 -29 10.68 -29 10 C-25.09971775 7.39981184 -21.52565431 7.84914486 -17 8 C-16.67 7.01 -16.34 6.02 -16 5 C-15.278125 5.04125 -14.55625 5.0825 -13.8125 5.125 C-8.68554608 4.89713538 -4.50550853 2.3051439 0 0 Z " fill="#00C2EE" transform="translate(242,384)"/>
<path d="M0 0 C9.57 0 19.14 0 29 0 C36 16.8 36 16.8 36 22 C35.34 22 34.68 22 34 22 C33.16320723 19.37605694 32.33043058 16.75095616 31.5 14.125 C31.26152344 13.37863281 31.02304687 12.63226563 30.77734375 11.86328125 C29 6.2265625 29 6.2265625 29 4 C20.42 4 11.84 4 3 4 C2.01 5.98 1.02 7.96 0 10 C-0.66 10 -1.32 10 -2 10 C-1.67 10.99 -1.34 11.98 -1 13 C-1.99609375 15.48046875 -1.99609375 15.48046875 -3.4375 18.1875 C-3.91058594 19.08855469 -4.38367188 19.98960937 -4.87109375 20.91796875 C-5.24363281 21.60503906 -5.61617188 22.29210937 -6 23 C-7.16514544 19.6092579 -6.84338928 17.76880023 -5.56640625 14.453125 C-5.27967041 13.69161133 -4.99293457 12.93009766 -4.69750977 12.14550781 C-4.32295654 11.18999023 -3.94840332 10.23447266 -3.5625 9.25 C-2.386875 6.1975 -1.21125 3.145 0 0 Z " fill="#00A9E5" transform="translate(483,426)"/>
<path d="M0 0 C3.5 0.5 3.5 0.5 5.375 1.75 C7.99262739 5.82186483 7.61637685 10.17303343 7.59765625 14.890625 C7.5962413 15.59523865 7.59482635 16.29985229 7.59336853 17.02581787 C7.58778933 19.26725584 7.57524073 21.50859243 7.5625 23.75 C7.55748231 25.27343605 7.55291987 26.79687368 7.54882812 28.3203125 C7.53782674 32.04690772 7.52057646 35.77344396 7.5 39.5 C7.17 39.5 6.84 39.5 6.5 39.5 C6.17 28.28 5.84 17.06 5.5 5.5 C1.08803524 3.37620311 1.08803524 3.37620311 -1.5 3.5 C-1.809375 4.304375 -2.11875 5.10875 -2.4375 5.9375 C-3.5 8.5 -3.5 8.5 -4.5 9.5 C-4.65873955 11.71687994 -4.75133837 13.93855298 -4.81640625 16.16015625 C-4.83718735 16.82462265 -4.85796844 17.48908905 -4.87937927 18.1736908 C-4.94493658 20.30318543 -5.00378785 22.43280668 -5.0625 24.5625 C-5.10567939 26.00326847 -5.14929349 27.44402399 -5.19335938 28.88476562 C-5.30062393 32.4230404 -5.40187371 35.96145869 -5.5 39.5 C-5.83 39.5 -6.16 39.5 -6.5 39.5 C-6.57435222 34.74946489 -6.62869691 29.99927113 -6.66479492 25.24829102 C-6.67984876 23.63332211 -6.70029648 22.01839387 -6.72631836 20.40356445 C-6.76285286 18.07753445 -6.77976015 15.75204659 -6.79296875 13.42578125 C-6.80845261 12.70787918 -6.82393646 11.98997711 -6.83988953 11.25032043 C-6.84182324 5.44450135 -6.29846955 0.89978136 0 0 Z " fill="#00D6F8" transform="translate(260.5,331.5)"/>
<path d="M0 0 C1.03253906 0.01353516 1.03253906 0.01353516 2.0859375 0.02734375 C3.76577838 0.05067487 5.44543746 0.08653674 7.125 0.125 C7.125 0.455 7.125 0.785 7.125 1.125 C5.45824219 1.25455078 5.45824219 1.25455078 3.7578125 1.38671875 C-4.7693901 2.15268107 -12.74942367 2.87047216 -19.875 8.125 C-20.865 9.61 -20.865 9.61 -21.875 11.125 C-24.5 11.8125 -24.5 11.8125 -26.875 12.125 C-27.37 7.175 -27.37 7.175 -27.875 2.125 C-35.135 2.125 -42.395 2.125 -49.875 2.125 C-49.875 10.375 -49.875 18.625 -49.875 27.125 C-50.205 27.125 -50.535 27.125 -50.875 27.125 C-50.875 18.545 -50.875 9.965 -50.875 1.125 C-42.625 1.125 -34.375 1.125 -25.875 1.125 C-25.875 4.095 -25.875 7.065 -25.875 10.125 C-25.215 10.125 -24.555 10.125 -23.875 10.125 C-23.545 9.135 -23.215 8.145 -22.875 7.125 C-21.01953125 5.80859375 -21.01953125 5.80859375 -18.6875 4.5625 C-17.93082031 4.14871094 -17.17414062 3.73492187 -16.39453125 3.30859375 C-10.83684717 0.69777472 -6.11448265 -0.15404704 0 0 Z " fill="#00C8F4" transform="translate(672.875,462.875)"/>
<path d="M0 0 C6.57675361 0.86536232 13.44183181 2.29455454 19 6 C19.34057617 7.97119141 19.34057617 7.97119141 19.29296875 10.3515625 C19.28330078 11.20234375 19.27363281 12.053125 19.26367188 12.9296875 C19.23853516 13.81914062 19.21339844 14.70859375 19.1875 15.625 C19.16719727 16.97078125 19.16719727 16.97078125 19.14648438 18.34375 C19.11107473 20.56275471 19.05726654 22.78145176 19 25 C15.04 23.02 11.08 21.04 7 19 C9.86177057 17.56911472 11.93375773 18.40008303 15 19 C15.33 15.04 15.66 11.08 16 7 C14.288125 6.54625 12.57625 6.0925 10.8125 5.625 C7.08584888 4.63721296 3.55503162 3.49480306 0 2 C0 1.34 0 0.68 0 0 Z " fill="#00ABE3" transform="translate(295,376)"/>
<path d="M0 0 C5.61 0 11.22 0 17 0 C25.70588235 16.70588235 25.70588235 16.70588235 25 24 C22.54176828 20.31265242 21.98757384 17.30300029 21 13 C20.34 13 19.68 13 19 13 C19 11.02 19 9.04 19 7 C18.01 7 17.02 7 16 7 C16.33 5.35 16.66 3.7 17 2 C11.06 2.495 11.06 2.495 5 3 C5.55312735 7.02992782 6.1558062 11.02022924 7 15 C3.69383716 11.19791273 0 5.16418515 0 0 Z " fill="#00A5E5" transform="translate(355,439)"/>
<path d="M0 0 C7.1191234 -0.8089913 12.62116486 2.06720223 19 5 C19 8.88896429 17.88101112 9.94980157 15.375 12.875 C12.89453125 15.296875 12.89453125 15.296875 10 17 C5.04960299 16.93100492 0.70980322 15.42092368 -4 14 C-6.71068618 13.65639189 -9.38281973 13.45756117 -12.109375 13.30859375 C-14 13 -14 13 -16 11 C-13.24973583 10.94595551 -10.50053797 10.90630694 -7.75 10.875 C-6.97269531 10.85824219 -6.19539063 10.84148437 -5.39453125 10.82421875 C1.72431144 10.76337394 1.72431144 10.76337394 5 13 C5.33 12.34 5.66 11.68 6 11 C6 11.99 6 12.98 6 14 C11.40049736 13.68232368 13.52337065 10.80003673 17 7 C12.3525148 4.82307338 8.07971563 2.89642041 3 2 C2.01 1.34 1.02 0.68 0 0 Z " fill="#01A9E4" transform="translate(275,421)"/>
<path d="M0 0 C0.66 0.33 1.32 0.66 2 1 C-0.86361948 4.0425957 -3.717957 6.57358192 -7.125 9 C-10.38731197 11.38750206 -12.01221732 13.45656131 -14 17 C-16.19720377 19.47703633 -18.45818893 21.87467846 -21 24 C-21.66 24 -22.32 24 -23 24 C-23.12375 24.763125 -23.2475 25.52625 -23.375 26.3125 C-24 29 -24 29 -26 32 C-27.32 31.67 -28.64 31.34 -30 31 C-25.13131291 23.96745199 -19.9173423 17.61776364 -13.875 11.5625 C-13.30185059 10.98419434 -12.72870117 10.40588867 -12.13818359 9.81005859 C-8.34857581 6.08110186 -4.39527296 2.99169342 0 0 Z " fill="#00B3E8" transform="translate(188,393)"/>
<path d="M0 0 C5.38514129 0.0344649 10.07506959 1.61554568 15.13671875 3.33984375 C18.17368979 4.28865904 21.10405557 4.86442695 24.25 5.3125 C24.25 5.9725 24.25 6.6325 24.25 7.3125 C26.725 7.8075 26.725 7.8075 29.25 8.3125 C25.49270843 9.70806544 23.20965962 8.86182241 19.5 7.5625 C10.90229605 4.74148758 10.90229605 4.74148758 -3.75 2.3125 C-3.75 13.2025 -3.75 24.0925 -3.75 35.3125 C-4.08 35.3125 -4.41 35.3125 -4.75 35.3125 C-4.7746519 30.48869198 -4.79283693 25.66492033 -4.80493164 20.84106445 C-4.80997174 19.19880536 -4.81680378 17.55655077 -4.82543945 15.91430664 C-4.83751926 13.55874521 -4.84323139 11.20324291 -4.84765625 8.84765625 C-4.85281754 8.10910904 -4.85797882 7.37056183 -4.86329651 6.6096344 C-4.8634925 4.84351912 -4.81194719 3.07752854 -4.75 1.3125 C-3.75 0.3125 -3.75 0.3125 0 0 Z " fill="#00C9F6" transform="translate(271.75,384.6875)"/>
<path d="M0 0 C1 2 1 2 0 6 C10.56 6 21.12 6 32 6 C32.33 4.68 32.66 3.36 33 2 C33.66 4.31 34.32 6.62 35 9 C22.46 9 9.92 9 -3 9 C-2.01 6.03 -1.02 3.06 0 0 Z " fill="#061624" transform="translate(482,505)"/>
<path d="M0 0 C-2.40959389 1.60639593 -4.15856072 2.53683466 -6.8125 3.5 C-7.51246094 3.7578125 -8.21242187 4.015625 -8.93359375 4.28125 C-10.73015266 4.90614006 -12.55123808 5.4596261 -14.375 6 C-17.30186273 6.8243848 -17.30186273 6.8243848 -19 10 C-20.91015625 10.87890625 -20.91015625 10.87890625 -23.0625 11.5625 C-25.18007721 12.20552436 -25.18007721 12.20552436 -27 13 C-27.33 13.66 -27.66 14.32 -28 15 C-28.99 15 -29.98 15 -31 15 C-31.33 15.99 -31.66 16.98 -32 18 C-33.64333504 19.03789581 -35.31243867 20.03567924 -37 21 C-38.75149165 22.58245275 -38.75149165 22.58245275 -40 24 C-40.66 23.67 -41.32 23.34 -42 23 C-33.69986777 13.5399114 -22.78075214 6.40561185 -11 2 C-9.9275 1.5875 -8.855 1.175 -7.75 0.75 C-5.02794174 0.00762047 -2.80563409 -0.1650373 0 0 Z " fill="#00B2E7" transform="translate(247,422)"/>
<path d="M0 0 C-4.29269322 2.42151925 -8.14417305 3.57830848 -12.94921875 4.375 C-15.36527832 5.11132292 -16.27834129 6.20224588 -18 8 C-20.9375 8.625 -20.9375 8.625 -24 9 C-25.33737094 9.31674575 -26.67288808 9.64270064 -28 10 C-28 10.66 -28 11.32 -28 12 C-28.66 12 -29.32 12 -30 12 C-30 12.66 -30 13.32 -30 14 C-31.28788008 14.53012738 -32.58046678 15.0488329 -33.875 15.5625 C-34.95394531 15.99755859 -34.95394531 15.99755859 -36.0546875 16.44140625 C-38 17 -38 17 -40 16 C-34.23632741 11.58637685 -27.96048066 8.36798602 -21.4375 5.25 C-20.63465576 4.86142822 -19.83181152 4.47285645 -19.00463867 4.07250977 C-6.25642069 -1.91443886 -6.25642069 -1.91443886 0 0 Z " fill="#00BFE8" transform="translate(230,376)"/>
<path d="M0 0 C9.12682669 2.53446022 15.42127907 7.43926906 20.43359375 15.43359375 C21.3527258 17.87210736 21.06179203 19.04963856 20.19921875 21.46484375 C19.8846875 20.789375 19.57015625 20.11390625 19.24609375 19.41796875 C16.21721574 12.68845548 16.21721574 12.68845548 11.19921875 7.46484375 C9.53907259 7.10042142 7.87215811 6.76511492 6.19921875 6.46484375 C5.19921875 5.46484375 4.19921875 4.46484375 3.19921875 3.46484375 C-1.16367697 2.28990197 -5.62318807 2.14711201 -10.11328125 1.90234375 C-10.85384766 1.85916016 -11.59441406 1.81597656 -12.35742188 1.77148438 C-14.17169589 1.66613943 -15.98621675 1.56506059 -17.80078125 1.46484375 C-12.5724164 -2.02073281 -6.02510773 -1.15124095 0 0 Z " fill="#01BFEB" transform="translate(744.80078125,462.53515625)"/>
<path d="M0 0 C0.66 0 1.32 0 2 0 C2 9.57 2 19.14 2 29 C4.64 29.33 7.28 29.66 10 30 C10 30.33 10 30.66 10 31 C6.7 31 3.4 31 0 31 C0 20.77 0 10.54 0 0 Z " fill="#090508" transform="translate(268,389)"/>
<path d="M0 0 C0 10.56 0 21.12 0 32 C-0.66 32 -1.32 32 -2 32 C-2 22.1 -2 12.2 -2 2 C-4.31 2 -6.62 2 -9 2 C-9 1.67 -9 1.34 -9 1 C-5.846632 0.29925156 -3.27275026 0 0 0 Z " fill="#080507" transform="translate(254,387)"/>
<path d="M0 0 C3.18616521 2.94451785 4.55828766 5.89111984 6 10 C5.67 11.32 5.34 12.64 5 14 C3.68 11.03 2.36 8.06 1 5 C-4.27681529 8.77127229 -4.27681529 8.77127229 -6.9375 14.375 C-6.958125 15.24125 -6.97875 16.1075 -7 17 C-9.45066527 14.54933473 -9.9152338 13.45546919 -10 10 C-7.91015625 7.32421875 -7.91015625 7.32421875 -5.0625 4.6875 C-4.12535156 3.80449219 -3.18820312 2.92148437 -2.22265625 2.01171875 C-1.48917969 1.34785156 -0.75570313 0.68398438 0 0 Z " fill="#01A8EC" transform="translate(327,459)"/>
<path d="M0 0 C0.33 0 0.66 0 1 0 C0.51344517 7.99827849 -1.75752191 14.91762409 -4.4375 22.4375 C-5.04948242 24.21157227 -5.04948242 24.21157227 -5.67382812 26.02148438 C-8.72928379 34.72928379 -8.72928379 34.72928379 -11 37 C-9.76133545 30.5814655 -7.91158273 24.48390803 -5.76489258 18.31811523 C-4.58219086 14.89200281 -3.68331915 11.5544584 -3 8 C-2.08842301 5.29360823 -1.03785029 2.66231161 0 0 Z " fill="#01A7EA" transform="translate(496,455)"/>
<path d="M0 0 C0.71484375 1.671875 0.71484375 1.671875 1 4 C-0.43359375 6.578125 -0.43359375 6.578125 -2.4375 9.25 C-3.42556641 10.58804687 -3.42556641 10.58804687 -4.43359375 11.953125 C-4.95050781 12.62859375 -5.46742188 13.3040625 -6 14 C-5.67 14.66 -5.34 15.32 -5 16 C-5.66 16.66 -6.32 17.32 -7 18 C-7.70710678 19.64991582 -8.37943989 21.31562256 -9 23 C-9.66 23 -10.32 23 -11 23 C-10.45582689 18.13185676 -8.99500447 14.64500805 -6.625 10.375 C-6.01914063 9.26898438 -5.41328125 8.16296875 -4.7890625 7.0234375 C-3.31535112 4.53292962 -1.79780679 2.26104536 0 0 Z " fill="#00ACE7" transform="translate(157,426)"/>
<path d="M0 0 C0 0.66 0 1.32 0 2 C-1.93697967 2.33634376 -3.87460486 2.66897165 -5.8125 3 C-7.43091797 3.2784375 -7.43091797 3.2784375 -9.08203125 3.5625 C-13.67824744 4.25162478 -18.35625567 4 -23 4 C-17.45076387 -1.54923613 -7.24409781 -0.22063242 0 0 Z " fill="#01BEE9" transform="translate(254,371)"/>
<path d="M0 0 C0.66 0.33 1.32 0.66 2 1 C-0.75098165 3.92291801 -3.48468678 6.41203574 -6.75 8.75 C-11.66286645 12.33151714 -15.79932999 16.62430207 -20 21 C-20 18 -20 18 -17.40234375 15.0390625 C-16.25516214 13.89321327 -15.09981862 12.75549172 -13.9375 11.625 C-13.37611328 11.06039063 -12.81472656 10.49578125 -12.23632812 9.9140625 C-8.41737839 6.14312242 -4.4370657 3.01833514 0 0 Z " fill="#00C9F2" transform="translate(188,393)"/>
<path d="M0 0 C7.1191234 -0.8089913 12.62116486 2.06720223 19 5 C19 8 19 8 17.6875 9.60546875 C17.130625 10.12753906 16.57375 10.64960938 16 11.1875 C15.443125 11.71730469 14.88625 12.24710937 14.3125 12.79296875 C13.879375 13.19128906 13.44625 13.58960938 13 14 C12.34 13.67 11.68 13.34 11 13 C12.98 11.02 14.96 9.04 17 7 C12.3525148 4.82307338 8.07971563 2.89642041 3 2 C2.01 1.34 1.02 0.68 0 0 Z " fill="#01B9F0" transform="translate(275,421)"/>
<path d="M0 0 C0.66 0.33 1.32 0.66 2 1 C-4.33333333 7.33333333 -10.66666667 13.66666667 -17 20 C-15.72817468 15.0619073 -14.07690892 12.69713956 -10.1875 9.4375 C-9.29675781 8.674375 -8.40601563 7.91125 -7.48828125 7.125 C-6.66714844 6.42375 -5.84601563 5.7225 -5 5 C-3.28934362 3.36864557 -1.64396755 1.69876647 0 0 Z " fill="#090307" transform="translate(178,399)"/>
<path d="M0 0 C5.44455793 0.7163892 10.88296551 1.98595064 16 4 C16.33 4.66 16.66 5.32 17 6 C13.01898932 5.49178587 9.06681199 4.8818279 5.125 4.125 C4.36445313 3.98320312 3.60390625 3.84140625 2.8203125 3.6953125 C2.21960938 3.46585937 1.61890625 3.23640625 1 3 C0.67 2.01 0.34 1.02 0 0 Z " fill="#00B5EA" transform="translate(295,376)"/>
<path d="M0 0 C0.66 0.33 1.32 0.66 2 1 C0.27723399 7.49350266 -1.60225719 13.7645919 -6 19 C-5.39124245 14.39583374 -4.15277044 10.43516676 -2.4375 6.125 C-1.75494141 4.39636719 -1.75494141 4.39636719 -1.05859375 2.6328125 C-0.70925781 1.76398438 -0.35992187 0.89515625 0 0 Z " fill="#00B1EE" transform="translate(482,430)"/>
<path d="M0 0 C2.40052454 -0.06668124 4.54448232 -0.12147138 6.875 0.5 C9.92221497 1.21699176 12.88352991 1.05993212 16 1 C15.67 1.99 15.34 2.98 15 4 C8.07 3.505 8.07 3.505 1 3 C0.67 2.01 0.34 1.02 0 0 Z " fill="#CDD5DB" transform="translate(831,563)"/>
<path d="M0 0 C0.99 0.33 1.98 0.66 3 1 C3 1.99 3 2.98 3 4 C6.3 4.99 9.6 5.98 13 7 C11.02 7.99 11.02 7.99 9 9 C6.421875 7.8828125 6.421875 7.8828125 3.75 6.125 C2.85796875 5.55007813 1.9659375 4.97515625 1.046875 4.3828125 C0.37140625 3.92648437 -0.3040625 3.47015625 -1 3 C-0.67 2.01 -0.34 1.02 0 0 Z " fill="#0074E9" transform="translate(195,600)"/>
<path d="M0 0 C0.66 0.33 1.32 0.66 2 1 C1.38125 1.5775 0.7625 2.155 0.125 2.75 C-2.05293915 4.83069418 -2.05293915 4.83069418 -3.0625 7.1875 C-4 9 -4 9 -7 10 C-7.66 9.01 -8.32 8.02 -9 7 C-8.67 6.01 -8.34 5.02 -8 4 C-7.34 4.66 -6.68 5.32 -6 6 C-4.02 4.02 -2.04 2.04 0 0 Z " fill="#00B5E6" transform="translate(711,470)"/>
<path d="M0 0 C-0.33 2.31 -0.66 4.62 -1 7 C-3 4 -3 4 -3 2 C-7.62 2 -12.24 2 -17 2 C-17 1.67 -17 1.34 -17 1 C-14.54171921 0.83252588 -12.08338135 0.6659856 -9.625 0.5 C-8.92632812 0.45230469 -8.22765625 0.40460938 -7.5078125 0.35546875 C-2.2265625 0 -2.2265625 0 0 0 Z " fill="#061421" transform="translate(369,505)"/>
<path d="M0 0 C0.66 1.32 1.32 2.64 2 4 C2.99 4.33 3.98 4.66 5 5 C3.68 5 2.36 5 1 5 C0.67 6.98 0.34 8.96 0 11 C-0.99 11 -1.98 11 -3 11 C-2.01 7.37 -1.02 3.74 0 0 Z " fill="#007EDB" transform="translate(442,539)"/>
<path d="M0 0 C1.9375 0.3125 1.9375 0.3125 4 1 C4.33 1.99 4.66 2.98 5 4 C5.99 4.33 6.98 4.66 8 5 C3.545 5.495 3.545 5.495 -1 6 C-0.67 4.02 -0.34 2.04 0 0 Z " fill="#0079DF" transform="translate(435,559)"/>
<path d="M0 0 C0.99 0 1.98 0 3 0 C1.62712658 3.69876091 -0.06355453 6.9514476 -2.125 10.3125 C-2.66382813 11.19550781 -3.20265625 12.07851563 -3.7578125 12.98828125 C-4.37269531 13.98408203 -4.37269531 13.98408203 -5 15 C-5.33 14.34 -5.66 13.68 -6 13 C-5.0390625 10.9765625 -5.0390625 10.9765625 -3.625 8.625 C-1.90220955 5.74726623 -0.64841937 3.30241495 0 0 Z " fill="#00AFED" transform="translate(211,456)"/>
<path d="M0 0 C1.92106808 3.84213617 -0.85064134 8.54362631 -2.125 12.4375 C-2.41375 13.283125 -2.7025 14.12875 -3 15 C-3.33 15 -3.66 15 -4 15 C-3.63495936 9.33557626 -2.9445679 4.99296295 0 0 Z " fill="#00A7EA" transform="translate(145,450)"/>
<path d="M0 0 C-0.33 0.66 -0.66 1.32 -1 2 C-3.06640625 2.4140625 -3.06640625 2.4140625 -5.5625 2.625 C-6.38878906 2.69976562 -7.21507812 2.77453125 -8.06640625 2.8515625 C-9.02353516 2.92503906 -9.02353516 2.92503906 -10 3 C-10 2.01 -10 1.02 -10 0 C-6.7169902 -1.6415049 -3.57454967 -0.51888624 0 0 Z " fill="#00ACDB" transform="translate(255,385)"/>
<path d="M0 0 C6.0018137 -0.21824777 11.19233704 0.4943096 17 2 C17 2.33 17 2.66 17 3 C5.47835991 3.3690205 5.47835991 3.3690205 0 1 C0 0.67 0 0.34 0 0 Z " fill="#00C5F2" transform="translate(269,371)"/>
<path d="M0 0 C0.99 0.33 1.98 0.66 3 1 C3.33333333 2.33333333 3.66666667 3.66666667 4 5 C4.99 5.33 5.98 5.66 7 6 C7 6.99 7 7.98 7 9 C3.64564078 7.61198929 1.88709697 6.11371 0 3 C0 2.01 0 1.02 0 0 Z " fill="#0078E5" transform="translate(159,567)"/>
<path d="M0 0 C1.65 0.33 3.3 0.66 5 1 C4.01 1.495 4.01 1.495 3 2 C2.67 2.825 2.34 3.65 2 4.5 C1 7 1 7 -1 8 C-1.93065133 5.39417629 -2.14917407 4.35801776 -1.0625 1.75 C-0.711875 1.1725 -0.36125 0.595 0 0 Z " fill="#01ACDE" transform="translate(256,333)"/>
<path d="M0 0 C0.66 0 1.32 0 2 0 C1.38461538 6.52307692 1.38461538 6.52307692 -0.5625 8.9375 C-1.036875 9.288125 -1.51125 9.63875 -2 10 C-3.32 9.34 -4.64 8.68 -6 8 C-4.7934375 7.4121875 -4.7934375 7.4121875 -3.5625 6.8125 C-0.76935262 5.23051809 -0.76935262 5.23051809 -0.1875 2.3125 C-0.125625 1.549375 -0.06375 0.78625 0 0 Z " fill="#0071EA" transform="translate(266,648)"/>
<path d="M0 0 C1.4370809 -0.05422947 2.87475462 -0.09289723 4.3125 -0.125 C5.11300781 -0.14820313 5.91351563 -0.17140625 6.73828125 -0.1953125 C9 0 9 0 12 2 C7.66726186 2.92844389 4.33273814 2.92844389 0 2 C0 1.34 0 0.68 0 0 Z " fill="#01AEE4" transform="translate(268,385)"/>
<path d="M0 0 C2.96527758 2.4453385 3.55582214 4.44602347 4.1875 8.1875 C4.34605469 9.08855469 4.50460937 9.98960937 4.66796875 10.91796875 C4.83232422 11.94857422 4.83232422 11.94857422 5 13 C2.94876752 10.94876752 2.35852882 9.72994937 1.375 7.0625 C0.98441406 6.02802734 0.98441406 6.02802734 0.5859375 4.97265625 C0 3 0 3 0 0 Z " fill="#01A9E5" transform="translate(520,451)"/>
<path d="M0 0 C0.66 0.33 1.32 0.66 2 1 C-0.97 3.97 -3.94 6.94 -7 10 C-7.66 9.01 -8.32 8.02 -9 7 C-7.88625 6.38125 -7.88625 6.38125 -6.75 5.75 C-4.09828315 4.06254382 -2.13325986 2.29127911 0 0 Z " fill="#00A2D9" transform="translate(174,407)"/>
<path d="M0 0 C0.66 0.33 1.32 0.66 2 1 C-0.80804268 3.96404505 -3.18315774 6.44499019 -7 8 C-7 7.01 -7 6.02 -7 5 C-5.46875 3.61328125 -5.46875 3.61328125 -3.5 2.3125 C-2.8503125 1.87550781 -2.200625 1.43851562 -1.53125 0.98828125 C-1.0259375 0.66214844 -0.520625 0.33601563 0 0 Z " fill="#01BFE8" transform="translate(188,393)"/>
<path d="M0 0 C0.598125 0.20625 1.19625 0.4125 1.8125 0.625 C0.1625 2.275 -1.4875 3.925 -3.1875 5.625 C-4.1775 5.295 -5.1675 4.965 -6.1875 4.625 C-5.03076352 1.15479057 -3.91311293 -0.67081936 0 0 Z " fill="#0073E0" transform="translate(329.1875,583.375)"/>
<path d="M0 0 C2 3 2 3 1.875 5.5625 C1 8 1 8 -1.0546875 9.15234375 C-1.69664062 9.43207031 -2.33859375 9.71179688 -3 10 C-2.69201674 8.51988629 -2.378482 7.04092675 -2.0625 5.5625 C-1.88847656 4.73878906 -1.71445312 3.91507813 -1.53515625 3.06640625 C-1 1 -1 1 0 0 Z " fill="#0175CE" transform="translate(468,539)"/>
<path d="M0 0 C0.66 0 1.32 0 2 0 C2 0.66 2 1.32 2 2 C3.32 2.33 4.64 2.66 6 3 C0.555 4.485 0.555 4.485 -5 6 C-3.38405168 3.95880212 -1.7143618 1.95927063 0 0 Z " fill="#00AADD" transform="translate(659,482)"/>
<path d="M0 0 C0.99 0.66 1.98 1.32 3 2 C2.0409375 2.1546875 2.0409375 2.1546875 1.0625 2.3125 C0.381875 2.539375 -0.29875 2.76625 -1 3 C-1.33 3.99 -1.66 4.98 -2 6 C-3.65 6 -5.3 6 -7 6 C-7 5.34 -7 4.68 -7 4 C-5.68 4 -4.36 4 -3 4 C-3 3.34 -3 2.68 -3 2 C-2.01 1.34 -1.02 0.68 0 0 Z " fill="#00ADDF" transform="translate(216,392)"/>
<path d="M0 0 C0.99 0 1.98 0 3 0 C3.33 1.65 3.66 3.3 4 5 C2.02 5.99 2.02 5.99 0 7 C-1.04449911 3.86650268 -0.93423645 3.01031744 0 0 Z " fill="#007AD8" transform="translate(363,530)"/>
<path d="M0 0 C0.66 0.66 1.32 1.32 2 2 C0.02 3.32 -1.96 4.64 -4 6 C-4.33 5.01 -4.66 4.02 -5 3 C-3.35 2.01 -1.7 1.02 0 0 Z " fill="#0073DE" transform="translate(320,588)"/>
<path d="M0 0 C0.66 0 1.32 0 2 0 C2.33 2.31 2.66 4.62 3 7 C2.01 6.67 1.02 6.34 0 6 C0 4.02 0 2.04 0 0 Z " fill="#0080D8" transform="translate(382,507)"/>
<path d="M0 0 C0.33 0.66 0.66 1.32 1 2 C1.66 2 2.32 2 3 2 C3 4.97 3 7.94 3 11 C0.60236815 8.60236815 0.65719414 7.66726502 0.375 4.375 C0.30023438 3.55773437 0.22546875 2.74046875 0.1484375 1.8984375 C0.09945313 1.27195312 0.05046875 0.64546875 0 0 Z " fill="#02B2EE" transform="translate(499,454)"/>
</svg>
